<svg width="90" height="69" viewBox="0 0 90 69" fill="none" xmlns="http://www.w3.org/2000/svg">
<path d="M76.1888 6.49112C70.4525 3.87855 64.3012 1.95373 57.8696 0.851304C57.7525 0.830028 57.6355 0.8832 57.5752 0.989545C56.784 2.38618 55.9077 4.2082 55.2941 5.64031C48.3765 4.61234 41.4944 4.61234 34.7187 5.64031C34.1049 4.17637 33.1968 2.38618 32.4022 0.989545C32.3418 0.886748 32.2248 0.833576 32.1077 0.851304C25.6797 1.95021 19.5284 3.87503 13.7885 6.49112C13.7388 6.51238 13.6962 6.54786 13.668 6.59391C2.00022 23.8962 -1.19606 40.7732 0.371925 57.4409C0.37902 57.5224 0.425137 57.6004 0.488993 57.65C8.18703 63.2614 15.6439 66.668 22.9623 68.926C23.0794 68.9615 23.2035 68.919 23.2781 68.8232C25.0092 66.4767 26.5524 64.0024 27.8755 61.4004C27.9536 61.248 27.8791 61.0672 27.7195 61.0069C25.2717 60.0853 22.941 58.9616 20.699 57.6855C20.5216 57.5827 20.5075 57.3309 20.6706 57.2104C21.1424 56.8595 21.6143 56.4943 22.0648 56.1257C22.1463 56.0584 22.2599 56.0442 22.3557 56.0867C37.0848 62.7617 53.0308 62.7617 67.5861 56.0867C67.6819 56.0406 67.7955 56.0548 67.8805 56.1222C68.3312 56.4908 68.803 56.8595 69.2783 57.2104C69.4415 57.3309 69.4308 57.5827 69.2535 57.6855C67.0115 58.9864 64.6807 60.0853 62.2294 61.0034C62.0698 61.0637 61.9988 61.248 62.0769 61.4004C63.4285 63.9987 64.9716 66.473 66.6709 68.8197C66.7419 68.919 66.8695 68.9615 66.9866 68.926C74.3405 66.668 81.7973 63.2614 89.4954 57.65C89.5628 57.6004 89.6054 57.526 89.6125 57.4444C91.4891 38.1747 86.4693 21.4361 76.3058 6.59744C76.281 6.54786 76.2385 6.51238 76.1888 6.49112ZM30.0751 47.292C25.6406 47.292 21.9867 43.251 21.9867 38.2882C21.9867 33.3254 25.5698 29.2844 30.0751 29.2844C34.6158 29.2844 38.2343 33.3609 38.1633 38.2882C38.1633 43.251 34.5803 47.292 30.0751 47.292ZM59.9803 47.292C55.546 47.292 51.8921 43.251 51.8921 38.2882C51.8921 33.3254 55.475 29.2844 59.9803 29.2844C64.5211 29.2844 68.1395 33.3609 68.0686 38.2882C68.0686 43.251 64.5211 47.292 59.9803 47.292Z" fill="#4A86E8"/>
</svg>
