<svg width="90" height="90" viewBox="0 0 90 90" fill="none" xmlns="http://www.w3.org/2000/svg">
<path d="M45.005 3.86752e-06C20.1397 -0.0103243 0 20.6667 0 46.1877C0 66.3691 12.5986 83.5242 30.1441 89.8244C32.507 90.4338 32.145 88.709 32.145 87.5316V79.5272C18.5007 81.1694 17.9477 71.8947 17.0327 70.3454C15.1827 67.1024 10.8088 66.2761 12.116 64.7269C15.2229 63.0847 18.3901 65.14 22.0601 70.7069C24.7146 74.7452 29.8927 74.0636 32.517 73.3922C33.0902 70.9651 34.3168 68.7962 36.006 67.1127C21.8691 64.51 15.977 55.6484 15.977 45.1136C15.977 40.0011 17.6159 35.3018 20.8334 31.5114C18.7823 25.2628 21.0245 19.9128 21.3261 19.1175C27.1679 18.5804 33.241 23.414 33.7136 23.7962C37.0316 22.877 40.8223 22.3916 45.0654 22.3916C49.3286 22.3916 53.1293 22.8976 56.4775 23.8272C57.6137 22.939 63.2443 18.787 68.6739 19.2931C68.9655 20.0884 71.1574 25.3144 69.2269 31.4804C72.4846 35.2812 74.1437 40.0218 74.1437 45.1446C74.1437 55.7 68.2114 64.572 54.0342 67.1333C55.2485 68.36 56.2127 69.8229 56.8704 71.4367C57.5282 73.0504 57.8663 74.7826 57.865 76.532V88.1512C57.9455 89.0808 57.865 90 59.3733 90C77.1802 83.8341 90 66.555 90 46.1981C90 20.6667 69.8503 3.86752e-06 45.005 3.86752e-06Z" fill="#4A86E8"/>
</svg>
