<svg width="95" height="57" viewBox="0 0 95 57" fill="none" xmlns="http://www.w3.org/2000/svg">
<path fill-rule="evenodd" clip-rule="evenodd" d="M26.6554 0.727295C41.2279 0.727295 53.0396 13.107 53.0396 28.3739C53.0396 43.6407 41.2279 56.0205 26.6554 56.0205C12.0857 56.0205 0.273987 43.6407 0.273987 28.3739C0.273987 13.107 12.0857 0.727295 26.6554 0.727295ZM68.8707 2.91196C76.2445 2.91196 82.2201 14.3112 82.2201 28.3739C82.2201 42.4366 76.2445 53.8358 68.8707 53.8358C61.4969 53.8358 55.5213 42.4366 55.5213 28.3739C55.5213 14.3112 61.4969 2.91196 68.8707 2.91196ZM89.4571 5.09375C92.0236 5.09375 94.1057 15.5153 94.1057 28.3739C94.1057 41.2324 92.0236 51.654 89.4571 51.654C86.8879 51.654 84.8057 41.2324 84.8057 28.3739C84.8057 15.5153 86.8879 5.09375 89.4571 5.09375Z" fill="#4A86E8"/>
</svg>
