<svg width="417" height="356" viewBox="0 0 417 356" fill="none" xmlns="http://www.w3.org/2000/svg">
<path fill-rule="evenodd" clip-rule="evenodd" d="M0.733398 312V40.1818H102.381C129.708 40.1818 153.531 45.5526 173.666 56.5082C193.884 67.3773 209.5 83.0913 220.439 103.545C231.39 123.936 236.756 148.138 236.756 175.963C236.756 203.871 231.392 228.153 220.445 248.626C209.59 269.087 194.015 284.845 173.797 295.8L173.79 295.804L173.782 295.808C153.57 306.671 129.753 312 102.509 312H0.733398ZM216.032 246.276C226.515 226.673 231.756 203.236 231.756 175.963C231.756 148.776 226.515 125.423 216.032 105.906C205.549 86.3039 190.634 71.304 171.287 60.9062C152.026 50.4233 129.057 45.1818 102.381 45.1818H5.7334V307H102.509C129.1 307 152.069 301.801 171.415 291.403C190.762 280.92 205.634 265.878 216.032 246.276ZM155.886 219.114L155.889 219.106C160.749 208.681 163.347 194.404 163.347 175.963C163.347 157.516 160.747 143.34 155.902 133.102L155.898 133.095L155.895 133.089C151.056 122.785 144.045 115.583 134.865 111.182L134.842 111.171L134.82 111.16C125.461 106.559 113.652 104.131 99.1851 104.131H74.0146V248.051H100.08C114.197 248.051 125.801 245.669 135.087 241.144C144.188 236.666 151.121 229.424 155.882 219.121L155.886 219.114ZM137.282 245.636C127.14 250.58 114.739 253.051 100.08 253.051H69.0146V99.1306H99.1851C114.185 99.1306 126.799 101.645 137.026 106.673C147.339 111.616 155.137 119.713 160.421 130.963C165.705 142.128 168.347 157.128 168.347 175.963C168.347 194.798 165.705 209.883 160.421 221.219C155.222 232.469 147.509 240.608 137.282 245.636ZM416.286 0.499969L320.781 355.312H244.613L340.117 0.499969H416.286ZM409.762 5.49997H343.949L251.137 350.312H316.949L409.762 5.49997Z" fill="black"/>
</svg>
