<svg width="161" height="22" viewBox="0 0 161 22" fill="none" xmlns="http://www.w3.org/2000/svg">
<path d="M12.9605 6.70974C12.891 5.94331 12.582 5.34759 12.0334 4.92257C11.4917 4.49058 10.7174 4.27458 9.71043 4.27458C9.04375 4.27458 8.48819 4.36168 8.04374 4.53587C7.59929 4.71006 7.26595 4.95044 7.04372 5.25701C6.8215 5.55661 6.70691 5.9015 6.69997 6.29169C6.68608 6.61219 6.74858 6.89438 6.88747 7.13824C7.0333 7.38211 7.24164 7.5981 7.51248 7.78622C7.79026 7.96738 8.1236 8.12763 8.5125 8.26698C8.90139 8.40633 9.3389 8.52827 9.82502 8.63278L11.6584 9.05083C12.714 9.28076 13.6445 9.58733 14.4501 9.97055C15.2626 10.3538 15.9432 10.8101 16.4918 11.3397C17.0474 11.8692 17.4675 12.4789 17.7522 13.1686C18.037 13.8584 18.1828 14.6318 18.1897 15.4888C18.1828 16.8405 17.8425 18.0006 17.1689 18.9691C16.4953 19.9376 15.5265 20.6797 14.2626 21.1952C13.0056 21.7108 11.4882 21.9686 9.71043 21.9686C7.92568 21.9686 6.3701 21.7004 5.04369 21.1639C3.71728 20.6274 2.68601 19.8122 1.94989 18.7183C1.21377 17.6244 0.835287 16.2413 0.814453 14.5691H5.75203C5.7937 15.2589 5.97773 15.8337 6.30413 16.2936C6.63052 16.7534 7.07844 17.1018 7.6479 17.3387C8.2243 17.5756 8.89097 17.6941 9.64793 17.6941C10.3424 17.6941 10.9327 17.6 11.4188 17.4119C11.9119 17.2238 12.2903 16.9625 12.5542 16.628C12.8181 16.2936 12.9535 15.9104 12.9605 15.4784C12.9535 15.0743 12.8285 14.7294 12.5855 14.4437C12.3424 14.1511 11.9674 13.9002 11.4605 13.6912C10.9605 13.4752 10.3216 13.2766 9.54376 13.0955L7.31456 12.5729C5.46731 12.1479 4.01242 11.4616 2.9499 10.514C1.88739 9.55946 1.3596 8.27047 1.36655 6.64703C1.3596 5.3232 1.71377 4.1631 2.42906 3.16675C3.14435 2.17039 4.13395 1.39351 5.39786 0.836105C6.66177 0.278702 8.10277 0 9.72085 0C11.3737 0 12.8077 0.282185 14.023 0.846555C15.2452 1.40396 16.1932 2.18781 16.8668 3.1981C17.5404 4.20839 17.8842 5.37894 17.8981 6.70974H12.9605Z" fill="white"/>
<path d="M40.9297 10.9948C40.9297 13.3498 40.4783 15.346 39.5755 16.9834C38.6727 18.6207 37.4505 19.8644 35.9088 20.7145C34.374 21.5645 32.6518 21.9895 30.742 21.9895C28.8253 21.9895 27.0996 21.561 25.5649 20.704C24.0301 19.847 22.8113 18.6033 21.9085 16.9729C21.0127 15.3356 20.5648 13.3428 20.5648 10.9948C20.5648 8.63975 21.0127 6.64355 21.9085 5.00618C22.8113 3.3688 24.0301 2.1251 25.5649 1.27506C27.0996 0.42502 28.8253 0 30.742 0C32.6518 0 34.374 0.42502 35.9088 1.27506C37.4505 2.1251 38.6727 3.3688 39.5755 5.00618C40.4783 6.64355 40.9297 8.63975 40.9297 10.9948ZM35.6588 10.9948C35.6588 9.60127 35.4608 8.42375 35.065 7.46223C34.6761 6.50071 34.1136 5.7726 33.3775 5.27791C32.6483 4.78321 31.7698 4.53587 30.742 4.53587C29.7212 4.53587 28.8427 4.78321 28.1066 5.27791C27.3704 5.7726 26.8045 6.50071 26.4086 7.46223C26.0197 8.42375 25.8253 9.60127 25.8253 10.9948C25.8253 12.3883 26.0197 13.5658 26.4086 14.5273C26.8045 15.4888 27.3704 16.2169 28.1066 16.7116C28.8427 17.2063 29.7212 17.4537 30.742 17.4537C31.7698 17.4537 32.6483 17.2063 33.3775 16.7116C34.1136 16.2169 34.6761 15.4888 35.065 14.5273C35.4608 13.5658 35.6588 12.3883 35.6588 10.9948Z" fill="white"/>
<path d="M56.8466 0.292637H61.9925V14.0988C61.9925 15.6944 61.6141 17.0844 60.8571 18.2689C60.1001 19.4464 59.0446 20.3591 57.6904 21.0071C56.3362 21.6481 54.7632 21.9686 52.9716 21.9686C51.159 21.9686 49.5757 21.6481 48.2215 21.0071C46.8673 20.3591 45.8152 19.4464 45.0652 18.2689C44.3152 17.0844 43.9402 15.6944 43.9402 14.0988V0.292637H49.0965V13.6494C49.0965 14.388 49.2562 15.0464 49.5757 15.6247C49.9021 16.203 50.3569 16.6559 50.9403 16.9834C51.5236 17.3108 52.2007 17.4746 52.9716 17.4746C53.7424 17.4746 54.416 17.3108 54.9924 16.9834C55.5758 16.6559 56.0306 16.203 56.357 15.6247C56.6834 15.0464 56.8466 14.388 56.8466 13.6494V0.292637Z" fill="white"/>
<path d="M65.2243 21.6969V0.292637H74.037C75.6342 0.292637 77.0127 0.58179 78.1725 1.1601C79.3392 1.73143 80.2385 2.5536 80.8704 3.6266C81.5024 4.69264 81.8184 5.95724 81.8184 7.42043C81.8184 8.90451 81.4955 10.1656 80.8496 11.2038C80.2038 12.235 79.2871 13.0223 78.0996 13.5658C76.912 14.1023 75.5058 14.3705 73.8808 14.3705H68.3077V10.2945H72.9224C73.7002 10.2945 74.3495 10.1935 74.8703 9.99145C75.3981 9.78242 75.7974 9.46888 76.0683 9.05083C76.3391 8.62581 76.4745 8.08234 76.4745 7.42043C76.4745 6.75851 76.3391 6.21156 76.0683 5.77957C75.7974 5.34062 75.3981 5.01314 74.8703 4.79715C74.3426 4.57419 73.6932 4.46271 72.9224 4.46271H70.3807V21.6969H65.2243ZM77.235 11.9145L82.5476 21.6969H76.9225L71.714 11.9145H77.235Z" fill="white"/>
<path d="M104.011 8.04751H98.803C98.7336 7.511 98.5912 7.02676 98.3759 6.59477C98.1607 6.16279 97.8759 5.79351 97.5218 5.48694C97.1676 5.18037 96.7474 4.94695 96.2613 4.7867C95.7822 4.61948 95.2509 4.53587 94.6675 4.53587C93.6328 4.53587 92.7404 4.79018 91.9904 5.29881C91.2474 5.80744 90.6744 6.54252 90.2716 7.50404C89.8758 8.46556 89.6779 9.62914 89.6779 10.9948C89.6779 12.4162 89.8793 13.6076 90.2821 14.5691C90.6918 15.5237 91.2647 16.2448 92.0008 16.7325C92.7439 17.2133 93.6224 17.4537 94.6363 17.4537C95.2057 17.4537 95.7231 17.3805 96.1884 17.2342C96.6606 17.0879 97.0738 16.8754 97.428 16.5967C97.7891 16.311 98.0843 15.9661 98.3134 15.562C98.5496 15.1509 98.7128 14.6876 98.803 14.172L104.011 14.2033C103.921 15.1509 103.647 16.0846 103.189 17.0043C102.737 17.924 102.116 18.7636 101.324 19.523C100.532 20.2755 99.5669 20.8747 98.428 21.3207C97.2961 21.7666 95.9974 21.9895 94.5321 21.9895C92.6015 21.9895 90.8723 21.5645 89.3445 20.7145C87.8237 19.8575 86.6223 18.6103 85.7403 16.9729C84.8584 15.3356 84.4174 13.3428 84.4174 10.9948C84.4174 8.63975 84.8653 6.64355 85.7611 5.00618C86.657 3.3688 87.8688 2.1251 89.3966 1.27506C90.9244 0.42502 92.6363 0 94.5321 0C95.8238 0 97.0183 0.181156 98.1155 0.543469C99.2128 0.898812 100.178 1.42138 101.011 2.11116C101.845 2.79398 102.522 3.63357 103.043 4.62993C103.564 5.62629 103.886 6.76548 104.011 8.04751Z" fill="white"/>
<path d="M106.962 21.6969V0.292637H121.837V4.49406H112.118V8.88361H121.077V13.0955H112.118V17.4955H121.837V21.6969H106.962Z" fill="white"/>
<path d="M127.931 22C127.181 22 126.539 21.7352 126.004 21.2057C125.476 20.6762 125.216 20.0352 125.223 19.2827C125.216 18.5441 125.476 17.9135 126.004 17.391C126.539 16.8614 127.181 16.5967 127.931 16.5967C128.639 16.5967 129.264 16.8614 129.806 17.391C130.355 17.9135 130.633 18.5441 130.639 19.2827C130.633 19.7843 130.501 20.2407 130.244 20.6518C129.994 21.0629 129.664 21.3903 129.254 21.6342C128.851 21.8781 128.41 22 127.931 22Z" fill="white"/>
<path d="M139.16 0.292637V10.9948V21.6969H134.004V10.9948V0.292637H139.16Z" fill="white"/>
<path d="M150.283 21.6969H142.397V0.292637H150.273C152.446 0.292637 154.318 0.721141 155.887 1.57815C157.464 2.42819 158.679 3.65447 159.533 5.25701C160.387 6.85257 160.814 8.76168 160.814 10.9843C160.814 13.2139 160.387 15.13 159.533 16.7325C158.686 18.3351 157.474 19.5648 155.898 20.4219C154.321 21.2719 152.45 21.6969 150.283 21.6969ZM147.554 17.2865H150.085C151.28 17.2865 152.29 17.0844 153.116 16.6803C153.95 16.2692 154.578 15.6038 155.002 14.6841C155.432 13.7574 155.648 12.5241 155.648 10.9843C155.648 9.4445 155.432 8.21821 155.002 7.30546C154.571 6.38575 153.936 5.72383 153.096 5.31972C152.262 4.90863 151.234 4.70309 150.012 4.70309H147.554V17.2865Z" fill="white"/>
<path d="M139.16 0.292637V10.9948V21.6969H134.004V10.9948V0.292637H139.16Z" fill="#FFCC00"/>
<path d="M150.283 21.6969H142.397V0.292637H150.273C152.446 0.292637 154.318 0.721141 155.887 1.57815C157.464 2.42819 158.679 3.65447 159.533 5.25701C160.387 6.85257 160.814 8.76168 160.814 10.9843C160.814 13.2139 160.387 15.13 159.533 16.7325C158.686 18.3351 157.474 19.5648 155.898 20.4219C154.321 21.2719 152.45 21.6969 150.283 21.6969ZM147.554 17.2865H150.085C151.28 17.2865 152.29 17.0844 153.116 16.6803C153.95 16.2692 154.578 15.6038 155.002 14.6841C155.432 13.7574 155.648 12.5241 155.648 10.9843C155.648 9.4445 155.432 8.21821 155.002 7.30546C154.571 6.38575 153.936 5.72383 153.096 5.31972C152.262 4.90863 151.234 4.70309 150.012 4.70309H147.554V17.2865Z" fill="#FFCC00"/>
</svg>
