<svg width="544" height="531" viewBox="0 0 544 531" fill="none" xmlns="http://www.w3.org/2000/svg">
<g filter="url(#filter0_d_546_1090)">
<path d="M539.015 0.181789L398.39 522.625H320.194L460.819 0.181789H539.015Z" fill="#FFCC00"/>
<path d="M213.97 197.945C212.55 183.622 206.454 172.495 195.682 164.564C184.91 156.633 170.291 152.668 151.825 152.668C139.278 152.668 128.684 154.443 120.043 157.994C111.402 161.427 104.773 166.221 100.156 172.376C95.6583 178.532 93.4093 185.516 93.4093 193.328C93.1725 199.839 94.5338 205.52 97.4931 210.374C100.571 215.227 104.773 219.429 110.1 222.98C115.426 226.413 121.582 229.431 128.566 232.036C135.549 234.521 143.007 236.652 150.938 238.428L183.608 246.24C199.47 249.791 214.03 254.526 227.287 260.445C240.545 266.363 252.027 273.643 261.733 282.284C271.44 290.925 278.956 301.105 284.283 312.824C289.728 324.543 292.51 337.978 292.628 353.129C292.51 375.383 286.828 394.678 275.583 411.013C264.456 427.23 248.357 439.836 227.287 448.832C206.335 457.71 181.063 462.149 151.47 462.149C122.114 462.149 96.5461 457.651 74.7658 448.655C53.1039 439.659 36.1768 426.342 23.9846 408.705C11.9107 390.949 5.57783 368.991 4.98597 342.831H79.3823C80.2109 355.023 83.7028 365.203 89.8581 373.371C96.1318 381.42 104.477 387.516 114.894 391.659C125.429 395.684 137.325 397.696 150.583 397.696C163.603 397.696 174.908 395.802 184.496 392.014C194.202 388.226 201.719 382.959 207.046 376.212C212.372 369.464 215.036 361.711 215.036 352.952C215.036 344.784 212.609 337.919 207.756 332.355C203.021 326.792 196.037 322.057 186.804 318.151C177.69 314.244 166.503 310.693 153.246 307.497L113.651 297.554C82.9926 290.097 58.7857 278.437 41.03 262.575C23.2743 246.714 14.4557 225.348 14.574 198.477C14.4557 176.46 20.315 157.225 32.1522 140.771C44.1077 124.318 60.5021 111.474 81.3354 102.241C102.169 93.0085 125.843 88.392 152.358 88.392C179.347 88.392 202.903 93.0085 223.026 102.241C243.267 111.474 259.011 124.318 270.256 140.771C281.501 157.225 287.301 176.283 287.656 197.945H213.97Z" fill="white"/>
</g>
<defs>
<filter id="filter0_d_546_1090" x="0.985962" y="0.181641" width="542.029" height="530.443" filterUnits="userSpaceOnUse" color-interpolation-filters="sRGB">
<feFlood flood-opacity="0" result="BackgroundImageFix"/>
<feColorMatrix in="SourceAlpha" type="matrix" values="0 0 0 0 0 0 0 0 0 0 0 0 0 0 0 0 0 0 127 0" result="hardAlpha"/>
<feOffset dy="4"/>
<feGaussianBlur stdDeviation="2"/>
<feComposite in2="hardAlpha" operator="out"/>
<feColorMatrix type="matrix" values="0 0 0 0 0 0 0 0 0 0 0 0 0 0 0 0 0 0 0.25 0"/>
<feBlend mode="normal" in2="BackgroundImageFix" result="effect1_dropShadow_546_1090"/>
<feBlend mode="normal" in="SourceGraphic" in2="effect1_dropShadow_546_1090" result="shape"/>
</filter>
</defs>
</svg>
