<svg width="236" height="60" viewBox="0 0 236 60" fill="none" xmlns="http://www.w3.org/2000/svg">
<path d="M15.455 52.4633H0V10.7015H15.4345C19.6947 10.7015 23.3628 11.5375 26.4388 13.2096C29.5284 14.8681 31.9103 17.2607 33.5844 20.3874C35.2585 23.5005 36.0956 27.2254 36.0956 31.562C36.0956 35.9122 35.2585 39.6506 33.5844 42.7773C31.9239 45.904 29.5488 48.3034 26.4592 49.9755C23.3696 51.634 19.7015 52.4633 15.455 52.4633ZM10.1059 43.8581H15.0671C17.4081 43.8581 19.3885 43.4638 21.0081 42.6754C22.6414 41.8733 23.8732 40.575 24.7034 38.7806C25.5473 36.9725 25.9692 34.5663 25.9692 31.562C25.9692 28.5576 25.5473 26.165 24.7034 24.3842C23.8596 22.5897 22.6142 21.2983 20.9673 20.5098C19.334 19.7077 17.3196 19.3067 14.9241 19.3067H10.1059V43.8581Z" fill="white"/>
<path d="M66.8585 0L50.689 60H39.2233L55.3929 0H66.8585Z" fill="#403AF4"/>
<path d="M73.8767 52.4633V10.7015H91.3121C94.4425 10.7015 97.0626 11.1433 99.1722 12.0269C101.296 12.9106 102.888 14.1476 103.95 15.7382C105.025 17.3287 105.562 19.1707 105.562 21.2643C105.562 22.8548 105.229 24.2754 104.562 25.5261C103.895 26.7632 102.976 27.7896 101.806 28.6052C100.635 29.4209 99.2811 29.9918 97.7431 30.3181V30.7259C99.4308 30.8075 100.989 31.2629 102.418 32.0922C103.861 32.9214 105.018 34.0769 105.889 35.5587C106.76 37.0269 107.196 38.767 107.196 40.779C107.196 43.022 106.624 45.0272 105.481 46.7945C104.338 48.5481 102.684 49.9347 100.52 50.9543C98.3556 51.9603 95.7287 52.4633 92.6391 52.4633H73.8767ZM83.9827 44.3271H90.23C92.4213 44.3271 94.0342 43.9124 95.0686 43.0832C96.1166 42.2539 96.6406 41.0984 96.6406 39.6166C96.6406 38.5427 96.3888 37.6183 95.8852 36.8434C95.3817 36.0549 94.6671 35.45 93.7416 35.0285C92.816 34.5935 91.7068 34.376 90.4137 34.376H83.9827V44.3271ZM83.9827 27.8711H89.5767C90.6792 27.8711 91.6591 27.6876 92.5166 27.3206C93.3741 26.9535 94.041 26.4233 94.5174 25.73C95.0074 25.0367 95.2524 24.2007 95.2524 23.2219C95.2524 21.8216 94.7556 20.7205 93.762 19.9184C92.7684 19.1164 91.4277 18.7153 89.74 18.7153H83.9827V27.8711Z" fill="white"/>
<path d="M151.519 31.5824C151.519 36.1773 150.634 40.072 148.865 43.2667C147.096 46.4614 144.7 48.888 141.678 50.5465C138.671 52.205 135.295 53.0343 131.552 53.0343C127.796 53.0343 124.413 52.1982 121.405 50.5261C118.397 48.854 116.009 46.4274 114.239 43.2463C112.484 40.0517 111.606 36.1637 111.606 31.5824C111.606 26.9875 112.484 23.0927 114.239 19.898C116.009 16.7034 118.397 14.2768 121.405 12.6183C124.413 10.9598 127.796 10.1305 131.552 10.1305C135.295 10.1305 138.671 10.9598 141.678 12.6183C144.7 14.2768 147.096 16.7034 148.865 19.898C150.634 23.0927 151.519 26.9875 151.519 31.5824ZM141.188 31.5824C141.188 28.8635 140.801 26.5661 140.025 24.6901C139.263 22.814 138.16 21.3934 136.717 20.4282C135.288 19.463 133.567 18.9804 131.552 18.9804C129.551 18.9804 127.83 19.463 126.387 20.4282C124.944 21.3934 123.835 22.814 123.059 24.6901C122.297 26.5661 121.916 28.8635 121.916 31.5824C121.916 34.3013 122.297 36.5987 123.059 38.4747C123.835 40.3507 124.944 41.7713 126.387 42.7365C127.83 43.7017 129.551 44.1843 131.552 44.1843C133.567 44.1843 135.288 43.7017 136.717 42.7365C138.16 41.7713 139.263 40.3507 140.025 38.4747C140.801 36.5987 141.188 34.3013 141.188 31.5824Z" fill="white"/>
<path d="M193.004 10.7015V52.4633H184.43L167.791 28.3605H167.525V52.4633H157.419V10.7015H166.117L182.572 34.7635H182.919V10.7015H193.004Z" fill="white"/>
<path d="M214.814 52.4633H199.359V10.7015H214.793C219.054 10.7015 222.722 11.5375 225.798 13.2096C228.887 14.8681 231.269 17.2607 232.943 20.3874C234.618 23.5005 235.455 27.2254 235.455 31.562C235.455 35.9122 234.618 39.6506 232.943 42.7773C231.283 45.904 228.908 48.3034 225.818 49.9755C222.729 51.634 219.06 52.4633 214.814 52.4633ZM209.465 43.8581H214.426C216.767 43.8581 218.747 43.4638 220.367 42.6754C222 41.8733 223.232 40.575 224.062 38.7806C224.906 36.9725 225.328 34.5663 225.328 31.562C225.328 28.5576 224.906 26.165 224.062 24.3842C223.219 22.5897 221.973 21.2983 220.326 20.5098C218.693 19.7077 216.679 19.3067 214.283 19.3067H209.465V43.8581Z" fill="white"/>
</svg>
