<svg width="38" height="37" viewBox="0 0 38 37" fill="none" xmlns="http://www.w3.org/2000/svg">
<path fill-rule="evenodd" clip-rule="evenodd" d="M21.9835 21.5042C23.1411 21.5042 24.0931 20.6135 24.1905 19.4721L24.1889 19.4706C24.1905 19.4382 24.1905 19.4073 24.1905 19.3748C24.1905 18.1361 23.2132 17.1246 21.9817 17.0723C20.7593 17.0723 19.7676 18.064 19.7676 19.2882C19.7676 20.5125 20.7611 21.5042 21.9835 21.5042ZM24.1889 19.4706L24.1887 19.4703V19.4758C24.1888 19.474 24.1889 19.4723 24.1889 19.4706ZM16.2674 19.9319C16.3892 19.647 16.4566 19.3334 16.4566 19.004C16.4566 17.6989 15.3986 16.6409 14.0935 16.6409C12.7884 16.6409 11.7305 17.6989 11.7305 19.004C11.7305 19.3407 11.8009 19.661 11.9278 19.9509C12.2929 20.7846 13.1252 21.367 14.0935 21.367C15.0692 21.367 15.9068 20.7757 16.2674 19.9319ZM27.5802 11.1096C29.5528 14.9429 30.6959 19.272 30.7716 23.886H30.7734L30.7572 23.9095C29.3202 25.891 26.987 27.1784 24.3528 27.1784C24.2824 27.1784 24.2121 27.1784 24.1526 27.1766C24.1526 27.1766 23.3737 26.2462 22.7246 25.424L22.7715 25.415C24.3337 25.0348 25.6871 24.118 26.6354 22.8517C25.8878 23.3483 25.0833 23.7673 24.1508 24.124L24.2554 24.0862C22.391 24.8615 20.3446 25.2906 18.1971 25.2906C15.4276 25.2906 12.8258 24.5784 10.6459 23.3668C10.6349 23.3587 10.5865 23.3308 10.5154 23.2897C10.3303 23.1829 9.99174 22.9874 9.76243 22.8258L9.77505 22.8439C10.6784 24.0681 11.9874 24.9769 13.5488 25.379C12.8997 26.2012 12.0992 27.1748 12.0992 27.1748H12.11L12.1098 27.1748C12.0359 27.1766 11.9621 27.1784 11.8882 27.1784C9.26478 27.1784 6.94064 25.8892 5.5 23.886V23.8608C5.57573 19.272 6.71887 14.9429 8.61568 11.2719L8.59405 11.2881C10.2817 9.95382 12.3805 9.1172 14.6956 9L14.912 9.25964L14.811 9.28128C12.723 9.81138 10.8154 10.7922 9.22151 12.094C9.22151 12.094 9.69751 11.8308 10.4981 11.463L10.3827 11.5099C12.687 10.4695 15.2437 9.89071 17.9357 9.89071C21.1325 9.89071 24.1382 10.7075 26.6607 12.094L26.6859 12.1139C25.1497 10.8553 23.3467 9.90874 21.2731 9.34619L21.576 9L21.6013 9.0018C23.8912 9.1172 25.9899 9.95382 27.656 11.2719L27.5802 11.1096Z" fill="#BABABA"/>
</svg>
