<svg width="30" height="30" viewBox="0 0 30 30" fill="none" xmlns="http://www.w3.org/2000/svg">
<path d="M14.9887 2.97296C7.98506 2.97013 2.3125 8.63986 2.3125 15.6378C2.3125 21.1716 5.86104 25.8756 10.8029 27.6031C11.4685 27.7702 11.3665 27.2973 11.3665 26.9744V24.7796C7.52344 25.2299 7.36768 22.6867 7.10996 22.2619C6.58887 21.3727 5.35693 21.1461 5.7251 20.7213C6.6002 20.271 7.49229 20.8346 8.52598 22.361C9.27363 23.4684 10.7321 23.2815 11.4713 23.0974C11.6327 22.4318 11.9782 21.8371 12.454 21.3755C8.47217 20.6618 6.8126 18.2319 6.8126 15.3433C6.8126 13.9414 7.27422 12.6528 8.18047 11.6135C7.60274 9.90011 8.23428 8.43312 8.31924 8.21505C9.96465 8.06779 11.6752 9.39318 11.8083 9.49796C12.7429 9.24591 13.8105 9.11281 15.0057 9.11281C16.2064 9.11281 17.277 9.25158 18.22 9.50646C18.54 9.2629 20.126 8.12443 21.6553 8.2632C21.7374 8.48126 22.3548 9.91427 21.811 11.605C22.7286 12.6472 23.1959 13.9471 23.1959 15.3518C23.1959 18.2461 21.525 20.6788 17.5318 21.3812C17.8739 21.7175 18.1454 22.1187 18.3307 22.5611C18.516 23.0036 18.6112 23.4786 18.6108 23.9583V27.1443C18.6335 27.3992 18.6108 27.6513 19.0356 27.6513C24.0512 25.9606 27.662 21.2226 27.662 15.6406C27.662 8.63986 21.9866 2.97296 14.9887 2.97296V2.97296Z" fill="#BABABA"/>
</svg>
