<svg width="40" height="37" viewBox="0 0 40 37" fill="none" xmlns="http://www.w3.org/2000/svg">
<path d="M10.1465 29.8077H0.988281V4.60741H10.1344C12.6589 4.60741 14.8325 5.11191 16.6553 6.12091C18.4861 7.1217 19.8976 8.56547 20.8896 10.4522C21.8817 12.3307 22.3777 14.5784 22.3777 17.1952C22.3777 19.8203 21.8817 22.0762 20.8896 23.9629C19.9057 25.8496 18.4982 27.2975 16.6674 28.3065C14.8366 29.3073 12.6629 29.8077 10.1465 29.8077ZM6.97683 24.6151H9.91667C11.3039 24.6151 12.4774 24.3772 13.4372 23.9014C14.4051 23.4174 15.135 22.634 15.627 21.5512C16.127 20.4601 16.377 19.0082 16.377 17.1952C16.377 15.3823 16.127 13.9386 15.627 12.864C15.1269 11.7811 14.3889 11.0018 13.413 10.526C12.4452 10.042 11.2515 9.80005 9.83198 9.80005H6.97683V24.6151Z" fill="white"/>
<path d="M39.9883 0.952881L31.255 33.9529H25.0623L33.7956 0.952881H39.9883Z" fill="#4A86E8"/>
</svg>
