<svg width="28" height="17" viewBox="0 0 28 17" fill="none" xmlns="http://www.w3.org/2000/svg">
<path fill-rule="evenodd" clip-rule="evenodd" d="M7.924 0.512695C12.232 0.512695 15.7238 4.00534 15.7238 8.3125C15.7238 12.6197 12.232 16.1123 7.924 16.1123C3.61683 16.1123 0.125 12.6197 0.125 8.3125C0.125 4.00534 3.61683 0.512695 7.924 0.512695ZM20.4038 1.12904C22.5837 1.12904 24.3503 4.34506 24.3503 8.3125C24.3503 12.2799 22.5837 15.496 20.4038 15.496C18.224 15.496 16.4574 12.2799 16.4574 8.3125C16.4574 4.34506 18.224 1.12904 20.4038 1.12904ZM26.4897 1.74458C27.2484 1.74458 27.8639 4.68478 27.8639 8.3125C27.8639 11.9402 27.2484 14.8804 26.4897 14.8804C25.7302 14.8804 25.1146 11.9402 25.1146 8.3125C25.1146 4.68478 25.7302 1.74458 26.4897 1.74458Z" fill="#BABABA"/>
</svg>
