<svg width="34" height="34" viewBox="0 0 34 34" fill="none" xmlns="http://www.w3.org/2000/svg">
<g clip-path="url(#clip0_80_232)">
<path fill-rule="evenodd" clip-rule="evenodd" d="M26.0681 11.7442C26.6433 11.1936 27.4294 10.854 28.2922 10.854C30.0452 10.854 31.4832 12.2646 31.4832 14.045C31.4832 15.3516 30.6971 16.4773 29.5987 16.9731C29.6508 17.2881 29.6782 17.6278 29.6782 17.94C29.6782 22.8841 23.9507 26.8585 16.8921 26.8585C9.83074 26.8585 4.10331 22.8567 4.10331 17.94C4.10331 17.6031 4.12796 17.2881 4.18274 16.9731C3.51731 16.6744 2.97454 16.1564 2.64513 15.5056C2.31571 14.8548 2.21961 14.1107 2.37288 13.3976C2.52615 12.6844 2.91951 12.0455 3.48722 11.5876C4.05494 11.1296 4.76262 10.8803 5.49203 10.8814C6.3521 10.8814 7.13548 11.221 7.71069 11.7689C9.93483 10.1747 12.9971 9.15576 16.3936 9.05168L18.0151 1.4151C18.0248 1.3403 18.0509 1.26857 18.0917 1.2051C18.1324 1.14163 18.1867 1.08799 18.2507 1.04806C18.3121 1.00836 18.3807 0.981145 18.4526 0.967985C18.5245 0.954825 18.5983 0.955974 18.6698 0.971367L23.9781 2.09439C24.1638 1.71138 24.4532 1.38817 24.8135 1.16155C25.1737 0.934925 25.5904 0.813987 26.016 0.8125C26.461 0.812992 26.8961 0.944062 27.2673 1.18947C27.6385 1.43487 27.9295 1.78381 28.1043 2.19304C28.279 2.60227 28.3299 3.0538 28.2505 3.49164C28.171 3.92949 27.9649 4.3344 27.6575 4.6562C27.3502 4.97799 26.9552 5.20251 26.5214 5.30192C26.0877 5.40134 25.6343 5.37128 25.2175 5.21547C24.8007 5.05966 24.4387 4.78496 24.1766 4.42541C23.9144 4.06585 23.7635 3.63727 23.7426 3.19277L18.982 2.17383L17.5194 9.02429C20.8638 9.15576 23.874 10.1747 26.0681 11.7442ZM10.1481 13.4459C10.5743 13.0197 11.1522 12.78 11.7549 12.7792C12.3445 12.7997 12.9032 13.0483 13.3131 13.4727C13.723 13.8971 13.9521 14.464 13.9521 15.054C13.9521 15.6441 13.723 16.211 13.3131 16.6354C12.9032 17.0598 12.3445 17.3084 11.7549 17.3289C10.5004 17.3535 9.48145 16.3099 9.48145 15.0527C9.48217 14.4499 9.72193 13.8721 10.1481 13.4459ZM22.2155 21.0951C20.646 22.6646 17.6658 22.7687 16.803 22.7687V22.766C15.9128 22.766 12.9327 22.6372 11.3879 21.0951C11.3317 21.0407 11.287 20.9756 11.2565 20.9036C11.226 20.8316 11.2103 20.7542 11.2103 20.676C11.2103 20.5978 11.226 20.5205 11.2565 20.4485C11.287 20.3765 11.3317 20.3113 11.3879 20.2569C11.4422 20.2008 11.5074 20.1561 11.5794 20.1256C11.6514 20.0951 11.7287 20.0794 11.8069 20.0794C11.8851 20.0794 11.9625 20.0951 12.0345 20.1256C12.1065 20.1561 12.1716 20.2008 12.226 20.2569C13.2203 21.2512 15.3102 21.5909 16.803 21.5909C18.2931 21.5909 20.4104 21.2512 21.3773 20.2569C21.4317 20.2008 21.4968 20.1561 21.5688 20.1256C21.6408 20.0951 21.7182 20.0794 21.7964 20.0794C21.8746 20.0794 21.952 20.0951 22.024 20.1256C22.0959 20.1561 22.1611 20.2008 22.2155 20.2569C22.3172 20.3729 22.3732 20.5218 22.3732 20.676C22.3732 20.8302 22.3172 20.9792 22.2155 21.0951ZM21.7964 17.3535C20.5419 17.3535 19.5202 16.3346 19.5202 15.0801H19.5229C19.5516 14.4964 19.8036 13.9461 20.2268 13.5432C20.6501 13.1403 21.212 12.9155 21.7964 12.9155C22.3807 12.9155 22.9427 13.1403 23.3659 13.5432C23.7891 13.9461 24.0412 14.4964 24.0698 15.0801C24.0698 16.3099 23.0509 17.3535 21.7964 17.3535Z" fill="#BABABA"/>
</g>
<defs>
<clipPath id="clip0_80_232">
<rect width="33" height="33" fill="white" transform="translate(0.5 0.8125)"/>
</clipPath>
</defs>
</svg>
