<svg width="306" height="42" viewBox="0 0 306 42" fill="none" xmlns="http://www.w3.org/2000/svg">
<path d="M23.1875 12.8095C23.0549 11.3463 22.465 10.209 21.4176 9.39763C20.3835 8.57292 18.9053 8.16057 16.983 8.16057C15.7102 8.16057 14.6496 8.32684 13.8011 8.65938C12.9527 8.99192 12.3163 9.45083 11.892 10.0361C11.4678 10.6081 11.2491 11.2665 11.2358 12.0114C11.2093 12.6233 11.3286 13.162 11.5938 13.6276C11.8722 14.0931 12.2699 14.5055 12.7869 14.8646C13.3172 15.2105 13.9536 15.5164 14.696 15.7824C15.4384 16.0485 16.2737 16.2812 17.2017 16.4808L20.7017 17.2789C22.7169 17.7178 24.4934 18.3031 26.0313 19.0347C27.5824 19.7663 28.8816 20.6375 29.929 21.6485C30.9896 22.6594 31.7917 23.8233 32.3352 25.1401C32.8788 26.457 33.1572 27.9335 33.1705 29.5696C33.1572 32.1501 32.5076 34.3648 31.2216 36.2138C29.9356 38.0627 28.0862 39.4793 25.6733 40.4637C23.2737 41.448 20.3769 41.9401 16.983 41.9401C13.5758 41.9401 10.6061 41.428 8.07386 40.4038C5.54167 39.3796 3.57292 37.8233 2.16761 35.7349C0.762311 33.6466 0.0397727 31.0062 0 27.8138H9.42614C9.50568 29.1306 9.85701 30.228 10.4801 31.1059C11.1032 31.9838 11.9583 32.6489 13.0455 33.1012C14.1458 33.5534 15.4186 33.7796 16.8636 33.7796C18.1894 33.7796 19.3163 33.6 20.2443 33.2409C21.1856 32.8817 21.9081 32.3829 22.4119 31.7444C22.9157 31.1059 23.1742 30.3743 23.1875 29.5496C23.1742 28.7781 22.9356 28.1197 22.4716 27.5743C22.0076 27.0157 21.2917 26.5368 20.3239 26.1378C19.3693 25.7254 18.1496 25.3463 16.6648 25.0005L12.4091 24.0028C8.88258 23.1914 6.10511 21.8812 4.0767 20.0722C2.0483 18.2499 1.04072 15.7891 1.05398 12.6898C1.04072 10.1625 1.71686 7.94774 3.08239 6.04561C4.44792 4.14347 6.33712 2.66033 8.75 1.5962C11.1629 0.532067 13.9138 0 17.0028 0C20.1581 0 22.8958 0.538717 25.2159 1.61615C27.5492 2.68029 29.3589 4.17672 30.6449 6.10547C31.9309 8.0342 32.5871 10.2689 32.6136 12.8095H23.1875Z" fill="white"/>
<path d="M76.5824 20.99C76.5824 25.486 75.7206 29.2969 73.9972 32.4228C72.2737 35.5487 69.9403 37.923 66.9972 39.5458C64.0672 41.1686 60.7794 41.98 57.1335 41.98C53.4744 41.98 50.1799 41.162 47.25 39.5259C44.3201 37.8898 41.9934 35.5154 40.2699 32.4028C38.5597 29.277 37.7045 25.4727 37.7045 20.99C37.7045 16.4941 38.5597 12.6831 40.2699 9.55724C41.9934 6.43135 44.3201 4.05701 47.25 2.4342C50.1799 0.811402 53.4744 0 57.1335 0C60.7794 0 64.0672 0.811402 66.9972 2.4342C69.9403 4.05701 72.2737 6.43135 73.9972 9.55724C75.7206 12.6831 76.5824 16.4941 76.5824 20.99ZM66.5199 20.99C66.5199 18.3297 66.1421 16.0817 65.3864 14.2461C64.6439 12.4104 63.5701 11.0204 62.1648 10.076C60.7727 9.13159 59.0956 8.65938 57.1335 8.65938C55.1847 8.65938 53.5076 9.13159 52.1023 10.076C50.697 11.0204 49.6165 12.4104 48.8608 14.2461C48.1184 16.0817 47.7472 18.3297 47.7472 20.99C47.7472 23.6504 48.1184 25.8983 48.8608 27.734C49.6165 29.5696 50.697 30.9596 52.1023 31.904C53.5076 32.8485 55.1847 33.3207 57.1335 33.3207C59.0956 33.3207 60.7727 32.8485 62.1648 31.904C63.5701 30.9596 64.6439 29.5696 65.3864 27.734C66.1421 25.8983 66.5199 23.6504 66.5199 20.99Z" fill="white"/>
<path d="M106.969 0.55867H116.793V26.9159C116.793 29.962 116.07 32.6157 114.625 34.877C113.18 37.1249 111.165 38.8675 108.58 40.1045C105.994 41.3283 102.991 41.9401 99.571 41.9401C96.1108 41.9401 93.0881 41.3283 90.5028 40.1045C87.9176 38.8675 85.9091 37.1249 84.4773 34.877C83.0455 32.6157 82.3296 29.962 82.3296 26.9159V0.55867H92.1733V26.058C92.1733 27.4679 92.4782 28.7249 93.0881 29.829C93.7112 30.933 94.5796 31.7976 95.6932 32.4228C96.8068 33.048 98.0994 33.3606 99.571 33.3606C101.043 33.3606 102.329 33.048 103.429 32.4228C104.543 31.7976 105.411 30.933 106.034 29.829C106.657 28.7249 106.969 27.4679 106.969 26.058V0.55867Z" fill="white"/>
<path d="M122.962 41.4214V0.55867H139.786C142.835 0.55867 145.467 1.11069 147.681 2.21473C149.908 3.30546 151.625 4.87506 152.832 6.92352C154.038 8.95867 154.641 11.3729 154.641 14.1663C154.641 16.9995 154.025 19.4071 152.792 21.3891C151.559 23.3577 149.809 24.8608 147.542 25.8983C145.275 26.9226 142.59 27.4347 139.488 27.4347H128.849V19.6532H137.658C139.143 19.6532 140.383 19.4603 141.377 19.0746C142.385 18.6755 143.147 18.077 143.664 17.2789C144.181 16.4675 144.44 15.4299 144.44 14.1663C144.44 12.9026 144.181 11.8584 143.664 11.0337C143.147 10.1957 142.385 9.57055 141.377 9.1582C140.37 8.73254 139.13 8.51972 137.658 8.51972H132.806V41.4214H122.962ZM145.891 22.7458L156.033 41.4214H145.295L135.352 22.7458H145.891Z" fill="white"/>
<path d="M197.009 15.3634H187.066C186.933 14.3392 186.662 13.4147 186.251 12.59C185.84 11.7653 185.296 11.0603 184.62 10.4751C183.944 9.88979 183.142 9.44418 182.214 9.13824C181.299 8.819 180.285 8.65938 179.171 8.65938C177.196 8.65938 175.492 9.14489 174.06 10.1159C172.642 11.0869 171.548 12.4903 170.779 14.3259C170.023 16.1615 169.646 18.3829 169.646 20.99C169.646 23.7036 170.03 25.9781 170.799 27.8138C171.581 29.6361 172.675 31.0128 174.08 31.9439C175.499 32.8618 177.176 33.3207 179.112 33.3207C180.199 33.3207 181.186 33.181 182.075 32.9017C182.976 32.6223 183.765 32.2166 184.441 31.6846C185.13 31.1392 185.694 30.4808 186.131 29.7093C186.582 28.9245 186.894 28.0399 187.066 27.0556L197.009 27.1154C196.837 28.9245 196.313 30.7069 195.438 32.4627C194.576 34.2185 193.39 35.8214 191.879 37.2713C190.367 38.7078 188.524 39.8518 186.35 40.7031C184.189 41.5544 181.71 41.98 178.913 41.98C175.227 41.98 171.926 41.1686 169.009 39.5458C166.106 37.9097 163.812 35.5287 162.129 32.4028C160.445 29.277 159.603 25.4727 159.603 20.99C159.603 16.4941 160.458 12.6831 162.168 9.55724C163.879 6.43135 166.192 4.05701 169.109 2.4342C172.025 0.811402 175.293 0 178.913 0C181.379 0 183.659 0.345844 185.754 1.03753C187.848 1.71591 189.691 2.71354 191.282 4.0304C192.873 5.33397 194.165 6.93682 195.16 8.83896C196.154 10.7411 196.771 12.9159 197.009 15.3634Z" fill="white"/>
<path d="M202.642 41.4214V0.55867H231.04V8.57957H212.486V16.9596H229.588V25.0005H212.486V33.4005H231.04V41.4214H202.642Z" fill="white"/>
<path d="M242.673 42C241.242 42 240.015 41.4945 238.994 40.4836C237.987 39.4727 237.49 38.2489 237.503 36.8124C237.49 35.4024 237.987 34.1986 238.994 33.201C240.015 32.19 241.242 31.6846 242.673 31.6846C244.026 31.6846 245.219 32.19 246.253 33.201C247.3 34.1986 247.831 35.4024 247.844 36.8124C247.831 37.7701 247.579 38.6413 247.088 39.4261C246.611 40.2109 245.981 40.8361 245.199 41.3017C244.43 41.7672 243.588 42 242.673 42Z" fill="white"/>
<path d="M264.111 0.55867V41.4214H254.267V20.99V0.55867H264.111Z" fill="white"/>
<path d="M285.344 41.4214H270.29V0.55867H285.325C289.474 0.55867 293.047 1.37672 296.043 3.01283C299.053 4.63563 301.373 6.97672 303.004 10.0361C304.634 13.0822 305.45 16.7268 305.45 20.9701C305.45 25.2266 304.634 28.8846 303.004 31.9439C301.386 35.0033 299.073 37.3511 296.063 38.9872C293.054 40.61 289.481 41.4214 285.344 41.4214ZM280.134 33.0014H284.967C287.247 33.0014 289.176 32.6157 290.754 31.8442C292.344 31.0594 293.544 29.7891 294.353 28.0333C295.175 26.2641 295.586 23.9097 295.586 20.9701C295.586 18.0304 295.175 15.6893 294.353 13.9468C293.531 12.191 292.318 10.9273 290.714 10.1558C289.123 9.37102 287.161 8.97862 284.827 8.97862H280.134V33.0014Z" fill="white"/>
<path d="M264.111 0.55867V41.4214H254.267V20.99V0.55867H264.111Z" fill="#FFCC00"/>
<path d="M285.344 41.4214H270.29V0.55867H285.325C289.474 0.55867 293.047 1.37672 296.043 3.01283C299.053 4.63563 301.373 6.97672 303.004 10.0361C304.634 13.0822 305.45 16.7268 305.45 20.9701C305.45 25.2266 304.634 28.8846 303.004 31.9439C301.386 35.0033 299.073 37.3511 296.063 38.9872C293.054 40.61 289.481 41.4214 285.344 41.4214ZM280.134 33.0014H284.967C287.247 33.0014 289.176 32.6157 290.754 31.8442C292.344 31.0594 293.544 29.7891 294.353 28.0333C295.175 26.2641 295.586 23.9097 295.586 20.9701C295.586 18.0304 295.175 15.6893 294.353 13.9468C293.531 12.191 292.318 10.9273 290.714 10.1558C289.123 9.37102 287.161 8.97862 284.827 8.97862H280.134V33.0014Z" fill="#FFCC00"/>
</svg>
