<svg width="77" height="30" viewBox="0 0 77 30" fill="none" xmlns="http://www.w3.org/2000/svg">
<path d="M4.15066 30C3.15085 30 2.29452 29.6341 1.58169 28.9023C0.87812 28.1704 0.530962 27.2845 0.540219 26.2446C0.530962 25.2239 0.87812 24.3524 1.58169 23.6302C2.29452 22.8984 3.15085 22.5325 4.15066 22.5325C5.09493 22.5325 5.92811 22.8984 6.6502 23.6302C7.38155 24.3524 7.75185 25.2239 7.7611 26.2446C7.75185 26.9379 7.57595 27.5686 7.23342 28.1367C6.90015 28.7049 6.46042 29.1574 5.91422 29.4945C5.37729 29.8315 4.78943 30 4.15066 30Z" fill="white" fill-opacity="0.24"/>
<path d="M12.2464 29.5811V0H23.9942C26.1234 0 27.9611 0.433318 29.5071 1.29995C31.0623 2.15696 32.2612 3.3558 33.1036 4.89648C33.9461 6.42754 34.3673 8.20896 34.3673 10.2407C34.3673 12.2821 33.9368 14.0684 33.0759 15.5994C32.2242 17.1208 31.0068 18.3004 29.4238 19.1382C27.8407 19.9759 25.9614 20.3948 23.7859 20.3948H16.5373V14.7617H22.5084C23.5452 14.7617 24.4108 14.5739 25.1051 14.1984C25.8087 13.8228 26.341 13.298 26.702 12.624C27.0631 11.9403 27.2436 11.1459 27.2436 10.2407C27.2436 9.32595 27.0631 8.53635 26.702 7.87193C26.341 7.19788 25.8087 6.6779 25.1051 6.31199C24.4015 5.94608 23.536 5.76312 22.5084 5.76312H19.1201V29.5811H12.2464Z" fill="white" fill-opacity="0.24"/>
<path d="M44.5737 29.5811L36.2975 0H43.8933L48.1842 19.3837H48.4202L53.3221 0H59.5154L64.4173 19.4271H64.6533L68.9581 0H76.54L68.2777 29.5811H61.6539L56.5298 11.6418H56.3077L51.1836 29.5811H44.5737Z" fill="white" fill-opacity="0.24"/>
</svg>
