<svg width="26" height="26" viewBox="0 0 26 26" fill="none" xmlns="http://www.w3.org/2000/svg">
<path d="M22.4363 4.61928C22.4363 4.61928 24.4599 3.83021 24.2913 5.74651C24.2351 6.53558 23.7292 9.2973 23.3357 12.2845L21.9866 21.1333C21.9866 21.1333 21.8742 22.4296 20.8624 22.6551C19.8506 22.8805 18.3329 21.866 18.0518 21.6405C17.827 21.4715 13.8361 18.9352 12.4307 17.6952C12.0373 17.357 11.5876 16.6807 12.4869 15.8916L18.3891 10.2555C19.0637 9.57913 19.7382 8.001 16.9276 9.9173L9.05809 15.2717C9.05809 15.2717 8.15872 15.8353 6.47242 15.328L2.81868 14.2008C2.81868 14.2008 1.46961 13.3554 3.77426 12.5099C9.39539 9.8609 16.3093 7.15553 22.4363 4.61928Z" fill="#BABABA"/>
</svg>
