<svg width="27" height="27" viewBox="0 0 27 27" fill="none" xmlns="http://www.w3.org/2000/svg">
<g clip-path="url(#clip0_80_241)">
<path d="M25.9108 5.12564C25.5024 5.3068 25.0824 5.4597 24.6533 5.58383C25.1614 5.00931 25.5487 4.33331 25.7851 3.59357C25.8381 3.42776 25.7832 3.24626 25.6469 3.13781C25.5108 3.02929 25.3216 3.01629 25.1718 3.1051C24.2605 3.64557 23.2774 4.03398 22.2465 4.2611C21.2081 3.24643 19.7977 2.66898 18.3397 2.66898C15.2621 2.66898 12.7582 5.17278 12.7582 8.25034C12.7582 8.49272 12.7735 8.73377 12.8039 8.97146C8.98483 8.63614 5.43432 6.75903 2.99619 3.76827C2.9093 3.66167 2.77544 3.60422 2.63839 3.61521C2.50126 3.62594 2.37806 3.70327 2.30878 3.82212C1.81428 4.67064 1.55285 5.64111 1.55285 6.62852C1.55285 7.97339 2.03301 9.24941 2.8812 10.2465C2.6233 10.1571 2.37302 10.0455 2.13416 9.91291C2.00592 9.84154 1.84942 9.84263 1.72202 9.91568C1.59453 9.98873 1.51461 10.1231 1.51125 10.2699C1.51066 10.2947 1.51066 10.3194 1.51066 10.3445C1.51066 12.352 2.59109 14.1593 4.24293 15.1444C4.10102 15.1302 3.95919 15.1096 3.81829 15.0827C3.67302 15.055 3.52365 15.1059 3.42569 15.2167C3.32756 15.3274 3.2951 15.4817 3.34031 15.6226C3.95173 17.5315 5.5259 18.9356 7.42893 19.3637C5.85057 20.3522 4.04558 20.8701 2.15077 20.8701C1.7554 20.8701 1.35777 20.8468 0.968605 20.8008C0.775282 20.7778 0.590431 20.892 0.524592 21.0758C0.458753 21.2597 0.528534 21.4648 0.693005 21.5702C3.12719 23.131 5.94182 23.9559 8.83243 23.9559C14.515 23.9559 18.0699 21.2763 20.0513 19.0283C22.5222 16.2252 23.9393 12.515 23.9393 8.84909C23.9393 8.69594 23.9369 8.54129 23.9322 8.38713C24.9071 7.65267 25.7464 6.76381 26.4293 5.74218C26.5331 5.58701 26.5218 5.38195 26.4016 5.23912C26.2816 5.0962 26.0816 5.04999 25.9108 5.12564Z" fill="#BABABA"/>
</g>
<defs>
<clipPath id="clip0_80_241">
<rect width="26" height="26" fill="white" transform="translate(0.5 0.3125)"/>
</clipPath>
</defs>
</svg>
