<svg width="26" height="26" viewBox="0 0 26 26" fill="none" xmlns="http://www.w3.org/2000/svg">
<g clip-path="url(#clip0_80_225)">
<path d="M24.8893 6.02915C23.9869 4.95641 22.3208 4.51883 19.1388 4.51883H7.58845C4.33369 4.51883 2.63933 4.98464 1.7403 6.12673C0.86377 7.24028 0.86377 8.88101 0.86377 11.1518V15.48C0.86377 19.8792 1.90377 22.1129 7.58845 22.1129H19.1389C21.8983 22.1129 23.4273 21.7267 24.4165 20.78C25.4309 19.8092 25.8638 18.2241 25.8638 15.48V11.1518C25.8638 8.75705 25.7959 7.10665 24.8893 6.02915ZM16.9138 13.9134L11.6688 16.6546C11.5516 16.7159 11.4234 16.7463 11.2953 16.7463C11.1503 16.7463 11.0056 16.7073 10.8775 16.6297C10.6362 16.4835 10.4888 16.222 10.4888 15.9399V10.475C10.4888 10.1934 10.6358 9.93213 10.8766 9.78584C11.1175 9.63955 11.4171 9.62955 11.667 9.75939L16.912 12.4829C17.1788 12.6215 17.3464 12.897 17.3468 13.1975C17.3472 13.4983 17.1803 13.7742 16.9138 13.9134Z" fill="#BABABA"/>
</g>
<defs>
<clipPath id="clip0_80_225">
<rect width="25" height="25" fill="white" transform="translate(0.86377 0.8125)"/>
</clipPath>
</defs>
</svg>
