<svg width="167" height="42" viewBox="0 0 167 42" fill="none" xmlns="http://www.w3.org/2000/svg">
<path d="M11.7105 36.7243H0.814453V7.49103H11.6961C14.6996 7.49103 17.2857 8.07627 19.4543 9.24674C21.6326 10.4077 23.3118 12.0825 24.4921 14.2712C25.6724 16.4504 26.2625 19.0578 26.2625 22.0934C26.2625 25.1385 25.6724 27.7554 24.4921 29.9441C23.3214 32.1328 21.647 33.8124 19.4687 34.9829C17.2905 36.1438 14.7044 36.7243 11.7105 36.7243ZM7.93934 30.7007H11.437C13.0875 30.7007 14.4837 30.4247 15.6256 29.8728C16.7771 29.3113 17.6455 28.4025 18.2309 27.1464C18.8258 25.8808 19.1233 24.1964 19.1233 22.0934C19.1233 19.9903 18.8258 18.3155 18.2309 17.0689C17.6359 15.8128 16.7579 14.9088 15.5968 14.3569C14.4453 13.7954 13.0251 13.5147 11.3363 13.5147H7.93934V30.7007Z" fill="white"/>
<path d="M47.951 0L36.5512 42H28.4677L39.8675 0H47.951Z" fill="#403AF4"/>
<path d="M52.899 36.7243V7.49103H65.1912C67.3983 7.49103 69.2454 7.8003 70.7328 8.41884C72.2297 9.03738 73.3524 9.90334 74.1009 11.0167C74.859 12.1301 75.238 13.4195 75.238 14.885C75.238 15.9984 75.0029 16.9928 74.5327 17.8683C74.0625 18.7342 73.4148 19.4527 72.5896 20.0237C71.7643 20.5946 70.8096 20.9943 69.7252 21.2227V21.5082C70.9151 21.5653 72.0138 21.884 73.0214 22.4645C74.0386 23.045 74.8542 23.8539 75.4683 24.8911C76.0825 25.9188 76.3895 27.1369 76.3895 28.5453C76.3895 30.1154 75.9865 31.519 75.1805 32.7561C74.3744 33.9837 73.2085 34.9543 71.6828 35.668C70.157 36.3722 68.3051 36.7243 66.1268 36.7243H52.899ZM60.0239 31.029H64.4284C65.9733 31.029 67.1104 30.7387 67.8397 30.1582C68.5785 29.5778 68.948 28.7689 68.948 27.7316C68.948 26.9799 68.7704 26.3328 68.4154 25.7904C68.0604 25.2384 67.5566 24.815 66.9041 24.52C66.2515 24.2155 65.4695 24.0632 64.5579 24.0632H60.0239V31.029ZM60.0239 19.5098H63.9677C64.745 19.5098 65.4359 19.3813 66.0404 19.1244C66.645 18.8675 67.1152 18.4963 67.451 18.011C67.7965 17.5257 67.9692 16.9405 67.9692 16.2553C67.9692 15.2751 67.6189 14.5044 66.9185 13.9429C66.218 13.3815 65.2728 13.1007 64.0829 13.1007H60.0239V19.5098Z" fill="white"/>
<path d="M107.638 22.1077C107.638 25.3241 107.015 28.0504 105.767 30.2867C104.52 32.523 102.831 34.2216 100.701 35.3825C98.5798 36.5435 96.2001 37.124 93.5612 37.124C90.9128 37.124 88.5282 36.5387 86.4076 35.3683C84.2869 34.1978 82.6028 32.4992 81.3554 30.2724C80.1175 28.0362 79.4986 25.3146 79.4986 22.1077C79.4986 18.8912 80.1175 16.1649 81.3554 13.9286C82.6028 11.6924 84.2869 9.99375 86.4076 8.83279C88.5282 7.67183 90.9128 7.09135 93.5612 7.09135C96.2001 7.09135 98.5798 7.67183 100.701 8.83279C102.831 9.99375 104.52 11.6924 105.767 13.9286C107.015 16.1649 107.638 18.8912 107.638 22.1077ZM100.355 22.1077C100.355 20.2045 100.082 18.5963 99.5346 17.283C98.9973 15.9698 98.22 14.9754 97.2028 14.2998C96.1953 13.6241 94.9814 13.2863 93.5612 13.2863C92.1507 13.2863 90.9368 13.6241 89.9196 14.2998C88.9025 14.9754 88.1204 15.9698 87.5734 17.283C87.0361 18.5963 86.7674 20.2045 86.7674 22.1077C86.7674 24.0109 87.0361 25.6191 87.5734 26.9323C88.1204 28.2455 88.9025 29.2399 89.9196 29.9156C90.9368 30.5912 92.1507 30.929 93.5612 30.929C94.9814 30.929 96.1953 30.5912 97.2028 29.9156C98.22 29.2399 98.9973 28.2455 99.5346 26.9323C100.082 25.6191 100.355 24.0109 100.355 22.1077Z" fill="white"/>
<path d="M136.886 7.49103V36.7243H130.841L119.11 19.8524H118.923V36.7243H111.798V7.49103H117.93L129.531 24.3344H129.776V7.49103H136.886Z" fill="white"/>
<path d="M152.262 36.7243H141.366V7.49103H152.248C155.251 7.49103 157.838 8.07627 160.006 9.24674C162.184 10.4077 163.864 12.0825 165.044 14.2712C166.224 16.4504 166.814 19.0578 166.814 22.0934C166.814 25.1385 166.224 27.7554 165.044 29.9441C163.873 32.1328 162.199 33.8124 160.021 34.9829C157.842 36.1438 155.256 36.7243 152.262 36.7243ZM148.491 30.7007H151.989C153.639 30.7007 155.036 30.4247 156.177 29.8728C157.329 29.3113 158.197 28.4025 158.783 27.1464C159.378 25.8808 159.675 24.1964 159.675 22.0934C159.675 19.9903 159.378 18.3155 158.783 17.0689C158.188 15.8128 157.31 14.9088 156.149 14.3569C154.997 13.7954 153.577 13.5147 151.888 13.5147H148.491V30.7007Z" fill="white"/>
</svg>
