<svg width="638" height="289" viewBox="0 0 638 289" fill="none" xmlns="http://www.w3.org/2000/svg">
<path fill-rule="evenodd" clip-rule="evenodd" d="M545.428 156.81C470.658 237.208 363.952 287.5 245.5 287.5C153.76 287.5 69.0679 257.333 0.79932 206.378L0.201172 207.18C68.6366 258.259 153.538 288.5 245.5 288.5C364.259 288.5 471.238 238.07 546.192 157.457C554.151 164.043 564.363 168 575.5 168C600.905 168 621.5 147.405 621.5 122C621.5 105.971 613.301 91.8559 600.868 83.6212C616.281 57.0411 628.797 28.5723 637.985 -1.35298L637.029 -1.64648C627.868 28.1898 615.391 56.5745 600.027 83.0776C592.928 78.5946 584.517 76.0002 575.5 76.0002C550.095 76.0002 529.5 96.5951 529.5 122C529.5 135.909 535.673 148.375 545.428 156.81Z" fill="white"/>
</svg>
