<svg width="300" height="300" viewBox="0 0 300 300" fill="none" xmlns="http://www.w3.org/2000/svg">
<path fill-rule="evenodd" clip-rule="evenodd" d="M185.612 75.8076C169.124 75.8076 155.732 89.6911 155.732 106.849V131.171H215.493V106.849C215.493 89.6911 202.101 75.8076 185.612 75.8076ZM149.441 143.078L155.618 132.223H155.732V132.171H163.285L157.078 143.078H149.441ZM157.244 144.078L157.558 144.257L157.66 144.078H166.031L166.346 144.257L166.448 144.078H174.819L175.134 144.257L175.236 144.078H183.607L183.922 144.257L184.023 144.078H192.394L192.709 144.257L192.811 144.078H201.182L201.497 144.257L201.599 144.078H209.97L210.285 144.257L210.387 144.078H212.212C216.468 144.078 219.917 147.527 219.917 151.783V156.751L219.843 156.894L219.917 156.934V168.734L219.847 168.863L219.917 168.901V180.14L219.847 180.269L219.917 180.307V191.546L219.847 191.675L219.917 191.713V201.811L219.847 201.94L219.917 201.979V210.936L219.847 211.065L219.917 211.104V216.011C219.917 216.995 219.733 217.937 219.396 218.802L218.759 219.723C218.087 220.693 217.214 221.508 216.199 222.11L213.989 223.421L214.035 223.499C213.451 223.641 212.84 223.716 212.212 223.716H139.313C135.058 223.716 131.608 220.266 131.608 216.011V151.783C131.608 150.167 132.105 148.668 132.955 147.429L133.396 147.671L134.391 145.854C135.726 144.745 137.442 144.078 139.313 144.078H139.668L139.982 144.257L140.084 144.078H148.456L148.77 144.257L148.872 144.078H157.244ZM220.917 216.011V211.191L231.402 192.01V193.919V198.891C231.402 200.56 230.893 202.188 229.944 203.56L220.895 216.636C220.91 216.429 220.917 216.221 220.917 216.011ZM231.381 189.964L231.402 189.976V182.885L220.917 202.067V209.107L231.381 189.964ZM231.402 180.851V172.62L220.917 191.801V199.982L231.381 180.839L231.402 180.851ZM231.381 170.574L231.402 170.585V161.214L220.917 180.395V189.716L231.381 170.574ZM231.402 159.179V149.808L220.917 168.989V178.31L231.381 159.168L231.402 159.179ZM231.381 147.761L231.402 147.773V140.376C231.402 139.46 231.252 138.58 230.976 137.758L220.917 156.997V166.904L231.381 147.761ZM230.759 137.185C229.939 135.246 228.396 133.688 226.467 132.848L219.283 146.703C220.312 148.133 220.917 149.887 220.917 151.783V154.838L230.278 136.934L230.759 137.185ZM210.956 143.078H212.212C214.733 143.078 217.003 144.149 218.593 145.861L225.52 132.504C224.783 132.287 224.004 132.171 223.197 132.171H217.162L210.956 143.078ZM215.982 132.223H215.493V132.171H208.375L202.168 143.078H209.805L215.982 132.223ZM201.017 143.078L207.224 132.171H199.587L193.38 143.078H201.017ZM198.436 132.171H190.799L184.593 143.078H192.229L198.436 132.171ZM183.442 143.078L189.649 132.171H182.012L175.805 143.078H183.442ZM180.861 132.171H173.224L167.017 143.078H174.654L180.861 132.171ZM165.866 143.078L172.073 132.171H164.436L158.229 143.078H165.866ZM140.653 143.078H148.291L154.497 132.171H146.86L140.653 143.078ZM139.503 143.078L145.669 132.242C143.101 132.583 140.818 134.124 139.553 136.433L135.407 144.001C136.581 143.41 137.908 143.078 139.313 143.078H139.503ZM154.932 106.849V131.171H146.749C143.387 131.171 140.292 133.004 138.676 135.953L133.603 145.212C131.768 146.808 130.608 149.16 130.608 151.783V216.011C130.608 220.818 134.505 224.716 139.313 224.716H212.212C215.865 224.716 218.993 222.466 220.284 219.276L230.766 204.129C231.831 202.59 232.402 200.763 232.402 198.891V193.919V140.376C232.402 135.292 228.281 131.171 223.197 131.171H216.293V106.849C216.293 89.2779 202.571 75.0076 185.612 75.0076C168.654 75.0076 154.932 89.2779 154.932 106.849ZM176.342 186.426V204.078H177.309V186.204H176.9L176.915 186.183C181.906 185.85 185.855 181.541 185.855 176.275C185.855 170.791 181.574 166.346 176.293 166.346C171.012 166.346 166.731 170.791 166.731 176.275C166.731 181.674 170.881 186.066 176.049 186.2C176.145 186.276 176.243 186.352 176.342 186.426ZM171.945 174.338C171.14 177.874 171.785 182.046 174.957 185.226C170.812 184.558 167.601 180.83 167.601 176.275C167.601 171.241 171.523 167.216 176.293 167.216C176.596 167.216 176.895 167.232 177.19 167.264C176.234 167.643 175.354 168.289 174.596 169.111C173.355 170.456 172.408 172.302 171.945 174.338ZM172.92 174.56C172.108 178.127 172.894 182.345 176.561 185.329C181.209 185.181 184.985 181.214 184.985 176.275C184.985 172.272 182.505 168.908 179.092 167.697V167.891C177.761 167.891 176.444 168.583 175.331 169.789C174.221 170.992 173.349 172.675 172.92 174.56Z" fill="#403AF4"/>
<path d="M155.732 131.171H154.732V132.171H155.732V131.171ZM215.493 131.171V132.171H216.493V131.171H215.493ZM155.618 132.223V131.223H155.037L154.749 131.729L155.618 132.223ZM149.441 143.078L148.572 142.583L147.722 144.078H149.441V143.078ZM155.732 132.223V133.223H156.732V132.223H155.732ZM155.732 132.171V131.171H154.732V132.171H155.732ZM163.285 132.171L164.154 132.665L165.005 131.171H163.285V132.171ZM157.078 143.078V144.078H157.66L157.948 143.572L157.078 143.078ZM157.558 144.257L157.063 145.126L157.933 145.62L158.427 144.751L157.558 144.257ZM157.244 144.078L157.738 143.208L157.508 143.078H157.244V144.078ZM157.66 144.078V143.078H157.078L156.791 143.583L157.66 144.078ZM166.031 144.078L166.526 143.208L166.296 143.078H166.031V144.078ZM166.346 144.257L165.851 145.126L166.72 145.62L167.215 144.751L166.346 144.257ZM166.448 144.078V143.078H165.866L165.579 143.583L166.448 144.078ZM174.819 144.078L175.314 143.208L175.084 143.078H174.819V144.078ZM175.134 144.257L174.639 145.126L175.508 145.62L176.003 144.751L175.134 144.257ZM175.236 144.078V143.078H174.654L174.367 143.583L175.236 144.078ZM183.607 144.078L184.102 143.208L183.872 143.078H183.607V144.078ZM183.922 144.257L183.427 145.126L184.296 145.62L184.791 144.751L183.922 144.257ZM184.023 144.078V143.078H183.442L183.154 143.583L184.023 144.078ZM192.394 144.078L192.889 143.208L192.659 143.078H192.394V144.078ZM192.709 144.257L192.214 145.126L193.083 145.62L193.578 144.751L192.709 144.257ZM192.811 144.078V143.078H192.229L191.942 143.583L192.811 144.078ZM201.182 144.078L201.677 143.208L201.447 143.078H201.182V144.078ZM201.497 144.257L201.002 145.126L201.871 145.62L202.366 144.751L201.497 144.257ZM201.599 144.078V143.078H201.017L200.73 143.583L201.599 144.078ZM209.97 144.078L210.465 143.208L210.235 143.078H209.97V144.078ZM210.285 144.257L209.79 145.126L210.659 145.62L211.154 144.751L210.285 144.257ZM210.387 144.078V143.078H209.805L209.517 143.583L210.387 144.078ZM219.917 156.751L220.804 157.214L220.917 156.997V156.751H219.917ZM219.843 156.894L218.956 156.431L218.493 157.317L219.379 157.781L219.843 156.894ZM219.917 156.934H220.917V156.328L220.381 156.047L219.917 156.934ZM219.917 168.734L220.795 169.213L220.917 168.989V168.734H219.917ZM219.847 168.863L218.969 168.383L218.49 169.26L219.367 169.74L219.847 168.863ZM219.917 168.901H220.917V168.308L220.397 168.024L219.917 168.901ZM219.917 180.14L220.795 180.619L220.917 180.395V180.14H219.917ZM219.847 180.269L218.969 179.789L218.49 180.667L219.367 181.146L219.847 180.269ZM219.917 180.307H220.917V179.714L220.397 179.43L219.917 180.307ZM219.917 191.546L220.795 192.025L220.917 191.801V191.546H219.917ZM219.847 191.675L218.969 191.195L218.49 192.073L219.367 192.552L219.847 191.675ZM219.917 191.713H220.917V191.12L220.397 190.836L219.917 191.713ZM219.917 201.811L220.795 202.291L220.917 202.067V201.811H219.917ZM219.847 201.94L218.969 201.461L218.49 202.338L219.367 202.818L219.847 201.94ZM219.917 201.979H220.917V201.386L220.397 201.101L219.917 201.979ZM219.917 210.936L220.795 211.416L220.917 211.191V210.936H219.917ZM219.847 211.065L218.969 210.585L218.49 211.463L219.367 211.943L219.847 211.065ZM219.917 211.104H220.917V210.511L220.397 210.226L219.917 211.104ZM219.396 218.802L220.219 219.371L220.286 219.274L220.328 219.165L219.396 218.802ZM218.759 219.723L219.581 220.292L218.759 219.723ZM216.199 222.11L215.689 221.25H215.689L216.199 222.11ZM213.989 223.421L213.479 222.561L212.619 223.072L213.129 223.932L213.989 223.421ZM214.035 223.499L214.271 224.471L215.585 224.152L214.895 222.989L214.035 223.499ZM132.955 147.429L133.435 146.552L132.642 146.118L132.13 146.864L132.955 147.429ZM133.396 147.671L132.915 148.548L133.792 149.029L134.273 148.152L133.396 147.671ZM134.391 145.854L133.752 145.085L133.606 145.206L133.515 145.373L134.391 145.854ZM139.668 144.078L140.163 143.208L139.933 143.078H139.668V144.078ZM139.982 144.257L139.488 145.126L140.357 145.62L140.852 144.751L139.982 144.257ZM140.084 144.078V143.078H139.503L139.215 143.583L140.084 144.078ZM148.456 144.078L148.95 143.208L148.72 143.078H148.456V144.078ZM148.77 144.257L148.276 145.126L149.145 145.62L149.639 144.751L148.77 144.257ZM148.872 144.078V143.078H148.291L148.003 143.583L148.872 144.078ZM220.917 211.191L220.04 210.712L219.917 210.936V211.191H220.917ZM231.402 192.01H232.402L230.525 191.531L231.402 192.01ZM229.944 203.56L230.766 204.129L229.944 203.56ZM220.895 216.636L219.898 216.565L219.639 220.208L221.718 217.205L220.895 216.636ZM231.402 189.976L230.922 190.853L232.402 191.662V189.976H231.402ZM231.381 189.964L231.86 189.086L230.983 188.607L230.503 189.484L231.381 189.964ZM231.402 182.885H232.402L230.525 182.406L231.402 182.885ZM220.917 202.067L220.04 201.587L219.917 201.811V202.067H220.917ZM220.917 209.107H219.917L221.795 209.586L220.917 209.107ZM231.402 172.62H232.402L230.525 172.14L231.402 172.62ZM231.402 180.851L230.922 181.728L232.402 182.537V180.851H231.402ZM220.917 191.801L220.04 191.322L219.917 191.546V191.801H220.917ZM220.917 199.982H219.917L221.795 200.461L220.917 199.982ZM231.381 180.839L231.86 179.962L230.983 179.482L230.503 180.359L231.381 180.839ZM231.402 170.585L230.922 171.463L232.402 172.271V170.585H231.402ZM231.381 170.574L231.86 169.696L230.983 169.217L230.503 170.094L231.381 170.574ZM231.402 161.214H232.402L230.525 160.734L231.402 161.214ZM220.917 180.395L220.04 179.915L219.917 180.14V180.395H220.917ZM220.917 189.716H219.917L221.795 190.196L220.917 189.716ZM231.402 149.808H232.402L230.525 149.328L231.402 149.808ZM231.402 159.179L230.922 160.057L232.402 160.865V159.179H231.402ZM220.917 168.989L220.04 168.509L219.917 168.733V168.989H220.917ZM220.917 178.31H219.917L221.795 178.79L220.917 178.31ZM231.381 159.168L231.86 158.29L230.983 157.811L230.503 158.688L231.381 159.168ZM231.402 147.773L230.922 148.651L232.402 149.459V147.773H231.402ZM231.381 147.761L231.86 146.884L230.983 146.404L230.503 147.282L231.381 147.761ZM230.976 137.758L231.923 137.439L231.176 135.217L230.089 137.295L230.976 137.758ZM220.917 156.997L220.031 156.533L219.917 156.751V156.997H220.917ZM220.917 166.904H219.917L221.795 167.384L220.917 166.904ZM226.467 132.848L226.866 131.932L226.01 131.559L225.58 132.388L226.467 132.848ZM230.759 137.185L230.295 138.071L232.764 139.362L231.68 136.796L230.759 137.185ZM219.283 146.703L218.395 146.243L218.112 146.789L218.471 147.287L219.283 146.703ZM220.917 154.838H219.917L221.804 155.302L220.917 154.838ZM230.278 136.934L230.741 136.048L229.855 135.584L229.392 136.471L230.278 136.934ZM210.956 143.078L210.086 142.583L209.236 144.078H210.956V143.078ZM218.593 145.861L217.86 146.541L218.827 147.582L219.481 146.321L218.593 145.861ZM225.52 132.504L226.407 132.965L226.966 131.888L225.802 131.545L225.52 132.504ZM217.162 132.171V131.171H216.581L216.293 131.676L217.162 132.171ZM215.493 132.223H214.493V133.223H215.493V132.223ZM215.982 132.223L216.851 132.718L217.702 131.223H215.982V132.223ZM215.493 132.171H216.493V131.171H215.493V132.171ZM208.375 132.171V131.171H207.793L207.505 131.676L208.375 132.171ZM202.168 143.078L201.299 142.583L200.448 144.078H202.168V143.078ZM209.805 143.078V144.078H210.387L210.674 143.572L209.805 143.078ZM207.224 132.171L208.093 132.665L208.944 131.171H207.224V132.171ZM201.017 143.078V144.078H201.599L201.886 143.572L201.017 143.078ZM199.587 132.171V131.171H199.005L198.718 131.676L199.587 132.171ZM193.38 143.078L192.511 142.583L191.66 144.078H193.38V143.078ZM190.799 132.171V131.171H190.218L189.93 131.676L190.799 132.171ZM198.436 132.171L199.305 132.665L200.156 131.171H198.436V132.171ZM184.593 143.078L183.723 142.583L182.873 144.078H184.593V143.078ZM192.229 143.078V144.078H192.811L193.098 143.572L192.229 143.078ZM189.649 132.171L190.518 132.665L191.368 131.171H189.649V132.171ZM183.442 143.078V144.078H184.023L184.311 143.572L183.442 143.078ZM182.012 132.171V131.171H181.43L181.142 131.676L182.012 132.171ZM175.805 143.078L174.936 142.583L174.085 144.078H175.805V143.078ZM173.224 132.171V131.171H172.642L172.355 131.676L173.224 132.171ZM180.861 132.171L181.73 132.665L182.581 131.171H180.861V132.171ZM167.017 143.078L166.148 142.583L165.297 144.078H167.017V143.078ZM174.654 143.078V144.078H175.236L175.523 143.572L174.654 143.078ZM172.073 132.171L172.942 132.665L173.793 131.171H172.073V132.171ZM165.866 143.078V144.078H166.448L166.735 143.572L165.866 143.078ZM164.436 132.171V131.171H163.854L163.567 131.676L164.436 132.171ZM158.229 143.078L157.36 142.583L156.509 144.078H158.229V143.078ZM148.291 143.078V144.078H148.872L149.16 143.572L148.291 143.078ZM140.653 143.078L139.784 142.583L138.934 144.078H140.653V143.078ZM154.497 132.171L155.367 132.665L156.217 131.171H154.497V132.171ZM146.86 132.171V131.171H146.279L145.991 131.676L146.86 132.171ZM145.669 132.242L146.538 132.737L147.534 130.986L145.538 131.251L145.669 132.242ZM139.503 143.078V144.078H140.084L140.372 143.572L139.503 143.078ZM139.553 136.433L140.43 136.914L139.553 136.433ZM135.407 144.001L134.53 143.521L132.986 146.338L135.856 144.894L135.407 144.001ZM154.932 131.171V132.171H155.932V131.171H154.932ZM138.676 135.953L139.553 136.433L138.676 135.953ZM133.603 145.212L134.259 145.966L134.394 145.849L134.48 145.692L133.603 145.212ZM220.284 219.276L219.462 218.707L219.399 218.798L219.357 218.901L220.284 219.276ZM230.766 204.129L229.944 203.56H229.944L230.766 204.129ZM216.293 131.171H215.293V132.171H216.293V131.171ZM176.342 204.078H175.342V205.078H176.342V204.078ZM176.342 186.426H177.342V185.926L176.942 185.626L176.342 186.426ZM177.309 204.078V205.078H178.309V204.078H177.309ZM177.309 186.204H178.309V185.204H177.309V186.204ZM176.9 186.204L176.086 185.623L174.957 187.204H176.9V186.204ZM176.915 186.183L176.849 185.185L176.376 185.217L176.101 185.602L176.915 186.183ZM176.049 186.2L176.671 185.417L176.41 185.209L176.075 185.201L176.049 186.2ZM174.957 185.226L174.798 186.214L177.844 186.705L175.665 184.52L174.957 185.226ZM171.945 174.338L172.92 174.56L171.945 174.338ZM177.19 167.264L177.558 168.194L177.297 166.27L177.19 167.264ZM174.596 169.111L175.331 169.789L174.596 169.111ZM176.561 185.329L175.93 186.105L176.22 186.34L176.593 186.328L176.561 185.329ZM172.92 174.56L171.945 174.338H171.945L172.92 174.56ZM179.092 167.697L179.426 166.755L178.092 166.281V167.697H179.092ZM179.092 167.891V168.891H180.092V167.891H179.092ZM175.331 169.789L176.066 170.467H176.066L175.331 169.789ZM156.732 106.849C156.732 90.2077 169.711 76.8076 185.612 76.8076V74.8076C168.537 74.8076 154.732 89.1745 154.732 106.849H156.732ZM156.732 131.171V106.849H154.732V131.171H156.732ZM215.493 130.171H155.732V132.171H215.493V130.171ZM214.493 106.849V131.171H216.493V106.849H214.493ZM185.612 76.8076C201.513 76.8076 214.493 90.2077 214.493 106.849H216.493C216.493 89.1745 202.688 74.8076 185.612 74.8076V76.8076ZM154.749 131.729L148.572 142.583L150.31 143.572L156.487 132.718L154.749 131.729ZM155.732 131.223H155.618V133.223H155.732V131.223ZM154.732 132.171V132.223H156.732V132.171H154.732ZM163.285 131.171H155.732V133.171H163.285V131.171ZM157.948 143.572L164.154 132.665L162.416 131.676L156.209 142.583L157.948 143.572ZM149.441 144.078H157.078V142.078H149.441V144.078ZM158.053 143.387L157.738 143.208L156.749 144.947L157.063 145.126L158.053 143.387ZM156.791 143.583L156.689 143.762L158.427 144.751L158.529 144.572L156.791 143.583ZM166.031 143.078H157.66V145.078H166.031V143.078ZM166.841 143.387L166.526 143.208L165.537 144.947L165.851 145.126L166.841 143.387ZM165.579 143.583L165.477 143.762L167.215 144.751L167.317 144.572L165.579 143.583ZM174.819 143.078H166.448V145.078H174.819V143.078ZM175.628 143.387L175.314 143.208L174.325 144.947L174.639 145.126L175.628 143.387ZM174.367 143.583L174.265 143.762L176.003 144.751L176.105 144.572L174.367 143.583ZM183.607 143.078H175.236V145.078H183.607V143.078ZM184.416 143.387L184.102 143.208L183.113 144.947L183.427 145.126L184.416 143.387ZM183.154 143.583L183.052 143.762L184.791 144.751L184.893 144.572L183.154 143.583ZM192.394 143.078H184.023V145.078H192.394V143.078ZM193.204 143.387L192.889 143.208L191.9 144.947L192.214 145.126L193.204 143.387ZM191.942 143.583L191.84 143.762L193.578 144.751L193.68 144.572L191.942 143.583ZM201.182 143.078H192.811V145.078H201.182V143.078ZM201.991 143.387L201.677 143.208L200.688 144.947L201.002 145.126L201.991 143.387ZM200.73 143.583L200.628 143.762L202.366 144.751L202.468 144.572L200.73 143.583ZM209.97 143.078H201.599V145.078H209.97V143.078ZM210.779 143.387L210.465 143.208L209.476 144.947L209.79 145.126L210.779 143.387ZM209.517 143.583L209.416 143.762L211.154 144.751L211.256 144.572L209.517 143.583ZM212.212 143.078H210.387V145.078H212.212V143.078ZM220.917 151.783C220.917 146.975 217.02 143.078 212.212 143.078V145.078C215.916 145.078 218.917 148.079 218.917 151.783H220.917ZM220.917 156.751V151.783H218.917V156.751H220.917ZM220.729 157.358L220.804 157.214L219.031 156.288L218.956 156.431L220.729 157.358ZM220.381 156.047L220.306 156.008L219.379 157.781L219.454 157.82L220.381 156.047ZM220.917 168.734V156.934H218.917V168.734H220.917ZM220.724 169.342L220.795 169.213L219.04 168.254L218.969 168.383L220.724 169.342ZM220.397 168.024L220.327 167.985L219.367 169.74L219.438 169.779L220.397 168.024ZM220.917 180.14V168.901H218.917V180.14H220.917ZM220.724 180.748L220.795 180.619L219.04 179.66L218.969 179.789L220.724 180.748ZM220.397 179.43L220.327 179.391L219.367 181.146L219.438 181.185L220.397 179.43ZM220.917 191.546V180.307H218.917V191.546H220.917ZM220.724 192.154L220.795 192.025L219.04 191.066L218.969 191.195L220.724 192.154ZM220.397 190.836L220.327 190.797L219.367 192.552L219.438 192.591L220.397 190.836ZM220.917 201.811V191.713H218.917V201.811H220.917ZM220.724 202.42L220.795 202.291L219.04 201.332L218.969 201.461L220.724 202.42ZM220.397 201.101L220.327 201.063L219.367 202.818L219.438 202.856L220.397 201.101ZM220.917 210.936V201.979H218.917V210.936H220.917ZM220.724 211.545L220.795 211.416L219.04 210.456L218.969 210.585L220.724 211.545ZM220.397 210.226L220.327 210.188L219.367 211.943L219.438 211.981L220.397 210.226ZM220.917 216.011V211.104H218.917V216.011H220.917ZM220.328 219.165C220.709 218.185 220.917 217.121 220.917 216.011H218.917C218.917 216.869 218.757 217.688 218.464 218.44L220.328 219.165ZM219.581 220.292L220.219 219.371L218.574 218.233L217.937 219.154L219.581 220.292ZM216.709 222.97C217.848 222.294 218.828 221.381 219.581 220.292L217.937 219.154C217.347 220.006 216.58 220.721 215.689 221.25L216.709 222.97ZM214.499 224.281L216.709 222.97L215.689 221.25L213.479 222.561L214.499 224.281ZM214.895 222.989L214.849 222.911L213.129 223.932L213.175 224.009L214.895 222.989ZM212.212 224.716C212.92 224.716 213.61 224.631 214.271 224.471L213.799 222.527C213.292 222.65 212.76 222.716 212.212 222.716V224.716ZM139.313 224.716H212.212V222.716H139.313V224.716ZM130.608 216.011C130.608 220.818 134.505 224.716 139.313 224.716V222.716C135.61 222.716 132.608 219.714 132.608 216.011H130.608ZM130.608 151.783V216.011H132.608V151.783H130.608ZM132.13 146.864C131.17 148.263 130.608 149.959 130.608 151.783H132.608C132.608 150.375 133.04 149.072 133.779 147.995L132.13 146.864ZM133.876 146.794L133.435 146.552L132.474 148.306L132.915 148.548L133.876 146.794ZM133.515 145.373L132.519 147.191L134.273 148.152L135.268 146.334L133.515 145.373ZM139.313 143.078C137.2 143.078 135.26 143.832 133.752 145.085L135.031 146.623C136.193 145.657 137.684 145.078 139.313 145.078V143.078ZM139.668 143.078H139.313V145.078H139.668V143.078ZM140.477 143.387L140.163 143.208L139.173 144.947L139.488 145.126L140.477 143.387ZM139.215 143.583L139.113 143.762L140.852 144.751L140.953 144.572L139.215 143.583ZM148.456 143.078H140.084V145.078H148.456V143.078ZM149.265 143.387L148.95 143.208L147.961 144.947L148.276 145.126L149.265 143.387ZM148.003 143.583L147.901 143.762L149.639 144.751L149.741 144.572L148.003 143.583ZM157.244 143.078H148.872V145.078H157.244V143.078ZM219.917 211.191V216.011H221.917V211.191H219.917ZM230.525 191.531L220.04 210.712L221.795 211.671L232.28 192.49L230.525 191.531ZM232.402 193.919V192.01H230.402V193.919H232.402ZM232.402 198.891V193.919H230.402V198.891H232.402ZM230.766 204.129C231.831 202.59 232.402 200.763 232.402 198.891H230.402C230.402 200.356 229.955 201.787 229.122 202.991L230.766 204.129ZM221.718 217.205L230.766 204.129L229.122 202.991L220.073 216.067L221.718 217.205ZM219.917 216.011C219.917 216.197 219.911 216.382 219.898 216.565L221.893 216.707C221.909 216.477 221.917 216.245 221.917 216.011H219.917ZM231.882 189.098L231.86 189.086L230.901 190.841L230.922 190.853L231.882 189.098ZM230.402 182.885V189.976H232.402V182.885H230.402ZM221.795 202.546L232.28 183.365L230.525 182.406L220.04 201.587L221.795 202.546ZM221.917 209.107V202.067H219.917V209.107H221.917ZM230.503 189.484L220.04 208.627L221.795 209.586L232.258 190.444L230.503 189.484ZM230.402 172.62V180.851H232.402V172.62H230.402ZM221.795 192.281L232.28 173.099L230.525 172.14L220.04 191.322L221.795 192.281ZM221.917 199.982V191.801H219.917V199.982H221.917ZM230.503 180.359L220.04 199.502L221.795 200.461L232.258 181.319L230.503 180.359ZM231.882 179.973L231.86 179.962L230.901 181.717L230.922 181.728L231.882 179.973ZM231.882 169.708L231.86 169.696L230.901 171.451L230.922 171.463L231.882 169.708ZM230.402 161.214V170.585H232.402V161.214H230.402ZM221.795 180.875L232.28 161.693L230.525 160.734L220.04 179.915L221.795 180.875ZM221.917 189.716V180.395H219.917V189.716H221.917ZM230.503 170.094L220.04 189.237L221.795 190.196L232.258 171.053L230.503 170.094ZM230.402 149.808V159.179H232.402V149.808H230.402ZM221.795 169.469L232.28 150.287L230.525 149.328L220.04 168.509L221.795 169.469ZM221.917 178.31V168.989H219.917V178.31H221.917ZM230.503 158.688L220.04 177.83L221.795 178.79L232.258 159.647L230.503 158.688ZM231.882 158.302L231.86 158.29L230.901 160.045L230.922 160.057L231.882 158.302ZM231.882 146.895L231.86 146.884L230.901 148.639L230.922 148.651L231.882 146.895ZM230.402 140.376V147.773H232.402V140.376H230.402ZM230.028 138.077C230.27 138.798 230.402 139.57 230.402 140.376H232.402C232.402 139.351 232.234 138.363 231.923 137.439L230.028 138.077ZM221.804 157.46L231.862 138.221L230.089 137.295L220.031 156.533L221.804 157.46ZM221.917 166.904V156.997H219.917V166.904H221.917ZM230.503 147.282L220.04 166.424L221.795 167.384L232.258 148.241L230.503 147.282ZM226.069 133.765C227.762 134.502 229.118 135.872 229.837 137.574L231.68 136.796C230.761 134.62 229.03 132.873 226.866 131.932L226.069 133.765ZM220.171 147.164L227.355 133.309L225.58 132.388L218.395 146.243L220.171 147.164ZM221.917 151.783C221.917 149.67 221.242 147.713 220.094 146.119L218.471 147.287C219.382 148.552 219.917 150.103 219.917 151.783H221.917ZM221.917 154.838V151.783H219.917V154.838H221.917ZM229.392 136.471L220.031 154.375L221.804 155.302L231.164 137.397L229.392 136.471ZM231.222 136.299L230.741 136.048L229.815 137.82L230.295 138.071L231.222 136.299ZM212.212 142.078H210.956V144.078H212.212V142.078ZM219.326 145.181C217.555 143.273 215.023 142.078 212.212 142.078V144.078C214.444 144.078 216.452 145.025 217.86 146.541L219.326 145.181ZM224.632 132.044L217.705 145.401L219.481 146.321L226.407 132.965L224.632 132.044ZM223.197 133.171C223.907 133.171 224.591 133.273 225.237 133.463L225.802 131.545C224.975 131.301 224.1 131.171 223.197 131.171V133.171ZM217.162 133.171H223.197V131.171H217.162V133.171ZM211.825 143.572L218.032 132.665L216.293 131.676L210.086 142.583L211.825 143.572ZM215.493 133.223H215.982V131.223H215.493V133.223ZM214.493 132.171V132.223H216.493V132.171H214.493ZM208.375 133.171H215.493V131.171H208.375V133.171ZM203.037 143.572L209.244 132.665L207.505 131.676L201.299 142.583L203.037 143.572ZM209.805 142.078H202.168V144.078H209.805V142.078ZM215.113 131.729L208.936 142.583L210.674 143.572L216.851 132.718L215.113 131.729ZM206.355 131.676L200.148 142.583L201.886 143.572L208.093 132.665L206.355 131.676ZM199.587 133.171H207.224V131.171H199.587V133.171ZM194.249 143.572L200.456 132.665L198.718 131.676L192.511 142.583L194.249 143.572ZM201.017 142.078H193.38V144.078H201.017V142.078ZM190.799 133.171H198.436V131.171H190.799V133.171ZM185.462 143.572L191.668 132.665L189.93 131.676L183.723 142.583L185.462 143.572ZM192.229 142.078H184.593V144.078H192.229V142.078ZM197.567 131.676L191.36 142.583L193.098 143.572L199.305 132.665L197.567 131.676ZM188.78 131.676L182.573 142.583L184.311 143.572L190.518 132.665L188.78 131.676ZM182.012 133.171H189.649V131.171H182.012V133.171ZM176.674 143.572L182.881 132.665L181.142 131.676L174.936 142.583L176.674 143.572ZM183.442 142.078H175.805V144.078H183.442V142.078ZM173.224 133.171H180.861V131.171H173.224V133.171ZM167.886 143.572L174.093 132.665L172.355 131.676L166.148 142.583L167.886 143.572ZM174.654 142.078H167.017V144.078H174.654V142.078ZM179.992 131.676L173.785 142.583L175.523 143.572L181.73 132.665L179.992 131.676ZM171.204 131.676L164.997 142.583L166.735 143.572L172.942 132.665L171.204 131.676ZM164.436 133.171H172.073V131.171H164.436V133.171ZM159.098 143.572L165.305 132.665L163.567 131.676L157.36 142.583L159.098 143.572ZM165.866 142.078H158.229V144.078H165.866V142.078ZM148.291 142.078H140.653V144.078H148.291V142.078ZM153.628 131.676L147.421 142.583L149.16 143.572L155.367 132.665L153.628 131.676ZM146.86 133.171H154.497V131.171H146.86V133.171ZM141.522 143.572L147.729 132.665L145.991 131.676L139.784 142.583L141.522 143.572ZM144.8 131.747L138.634 142.583L140.372 143.572L146.538 132.737L144.8 131.747ZM140.43 136.914C141.541 134.886 143.546 133.532 145.8 133.233L145.538 131.251C142.657 131.633 140.096 133.362 138.676 135.953L140.43 136.914ZM136.284 144.482L140.43 136.914L138.676 135.953L134.53 143.521L136.284 144.482ZM139.313 142.078C137.749 142.078 136.268 142.448 134.957 143.108L135.856 144.894C136.894 144.372 138.068 144.078 139.313 144.078V142.078ZM139.503 142.078H139.313V144.078H139.503V142.078ZM155.932 131.171V106.849H153.932V131.171H155.932ZM146.749 132.171H154.932V130.171H146.749V132.171ZM139.553 136.433C140.993 133.805 143.752 132.171 146.749 132.171V130.171C143.021 130.171 139.59 132.203 137.799 135.472L139.553 136.433ZM134.48 145.692L139.553 136.433L137.799 135.472L132.726 144.731L134.48 145.692ZM131.608 151.783C131.608 149.461 132.633 147.38 134.259 145.966L132.947 144.457C130.903 146.235 129.608 148.858 129.608 151.783H131.608ZM131.608 216.011V151.783H129.608V216.011H131.608ZM139.313 223.716C135.058 223.716 131.608 220.266 131.608 216.011H129.608C129.608 221.371 133.953 225.716 139.313 225.716V223.716ZM212.212 223.716H139.313V225.716H212.212V223.716ZM219.357 218.901C218.213 221.726 215.444 223.716 212.212 223.716V225.716C216.286 225.716 219.772 223.206 221.211 219.652L219.357 218.901ZM229.944 203.56L219.462 218.707L221.107 219.845L231.589 204.699L229.944 203.56ZM231.402 198.891C231.402 200.56 230.893 202.188 229.944 203.56L231.589 204.699C232.769 202.992 233.402 200.966 233.402 198.891H231.402ZM231.402 193.919V198.891H233.402V193.919H231.402ZM231.402 140.376V193.919H233.402V140.376H231.402ZM223.197 132.171C227.729 132.171 231.402 135.844 231.402 140.376H233.402C233.402 134.74 228.833 130.171 223.197 130.171V132.171ZM216.293 132.171H223.197V130.171H216.293V132.171ZM215.293 106.849V131.171H217.293V106.849H215.293ZM185.612 76.0076C201.983 76.0076 215.293 89.7943 215.293 106.849H217.293C217.293 88.7616 203.158 74.0076 185.612 74.0076V76.0076ZM155.932 106.849C155.932 89.7943 169.242 76.0076 185.612 76.0076V74.0076C168.066 74.0076 153.932 88.7616 153.932 106.849H155.932ZM177.342 204.078V186.426H175.342V204.078H177.342ZM177.309 203.078H176.342V205.078H177.309V203.078ZM176.309 186.204V204.078H178.309V186.204H176.309ZM176.9 187.204H177.309V185.204H176.9V187.204ZM176.101 185.602L176.086 185.623L177.714 186.785L177.729 186.764L176.101 185.602ZM184.855 176.275C184.855 181.044 181.286 184.889 176.849 185.185L176.982 187.181C182.526 186.811 186.855 182.039 186.855 176.275H184.855ZM176.293 167.346C180.987 167.346 184.855 171.307 184.855 176.275H186.855C186.855 170.275 182.162 165.346 176.293 165.346V167.346ZM167.731 176.275C167.731 171.307 171.6 167.346 176.293 167.346V165.346C170.425 165.346 165.731 170.275 165.731 176.275H167.731ZM176.075 185.201C171.481 185.081 167.731 181.165 167.731 176.275H165.731C165.731 182.183 170.281 187.051 176.023 187.2L176.075 185.201ZM176.942 185.626C176.85 185.557 176.76 185.488 176.671 185.417L175.428 186.984C175.53 187.065 175.635 187.146 175.742 187.226L176.942 185.626ZM175.665 184.52C172.779 181.626 172.176 177.826 172.92 174.56L170.97 174.116C170.103 177.923 170.791 182.465 174.249 185.932L175.665 184.52ZM166.601 176.275C166.601 181.301 170.15 185.464 174.798 186.214L175.116 184.239C171.475 183.652 168.601 180.358 168.601 176.275H166.601ZM176.293 166.216C170.937 166.216 166.601 170.723 166.601 176.275H168.601C168.601 171.758 172.11 168.216 176.293 168.216V166.216ZM177.297 166.27C176.966 166.234 176.632 166.216 176.293 166.216V168.216C176.56 168.216 176.824 168.23 177.084 168.258L177.297 166.27ZM175.331 169.789C176.008 169.055 176.768 168.507 177.558 168.194L176.822 166.334C175.701 166.778 174.701 167.523 173.861 168.433L175.331 169.789ZM172.92 174.56C173.349 172.675 174.221 170.992 175.331 169.789L173.861 168.433C172.489 169.92 171.468 171.928 170.97 174.116L172.92 174.56ZM177.193 184.553C173.873 181.852 173.151 178.049 173.895 174.782L171.945 174.338C171.065 178.205 171.915 182.838 175.93 186.105L177.193 184.553ZM183.985 176.275C183.985 180.705 180.607 184.2 176.53 184.329L176.593 186.328C181.811 186.163 185.985 181.723 185.985 176.275H183.985ZM178.758 168.64C181.767 169.707 183.985 172.69 183.985 176.275H185.985C185.985 171.854 183.244 168.109 179.426 166.755L178.758 168.64ZM180.092 167.891V167.697H178.092V167.891H180.092ZM176.066 170.467C177.051 169.4 178.12 168.891 179.092 168.891V166.891C177.402 166.891 175.836 167.767 174.596 169.111L176.066 170.467ZM173.895 174.782C174.289 173.048 175.087 171.528 176.066 170.467L174.596 169.111C173.355 170.456 172.408 172.302 171.945 174.338L173.895 174.782Z" fill="#403AF4"/>
<path d="M89.3944 195.336C79.1089 195.336 69.4286 211.944 79.109 223.852" stroke="#403AF4" stroke-width="2"/>
<path fill-rule="evenodd" clip-rule="evenodd" d="M83.3905 142.288V193.235H82.3905V116.064H83.3905V122.233H97.265V123.233H83.3905V131.126H91.454V132.126H83.3905V141.288H97.265V142.288H83.3905ZM82.8903 223.992C90.7484 223.992 97.1824 217.367 97.1824 209.114C97.1824 200.86 90.7484 194.235 82.8903 194.235C75.0321 194.235 68.5981 200.86 68.5981 209.114C68.5981 217.367 75.0321 223.992 82.8903 223.992ZM82.8903 224.992C91.3359 224.992 98.1824 217.883 98.1824 209.114C98.1824 200.344 91.3359 193.235 82.8903 193.235C74.4447 193.235 67.5981 200.344 67.5981 209.114C67.5981 217.883 74.4447 224.992 82.8903 224.992Z" fill="#403AF4"/>
<path d="M83.3905 193.235V194.235H84.3905V193.235H83.3905ZM83.3905 142.288V141.288H82.3905V142.288H83.3905ZM82.3905 193.235H81.3905V194.235H82.3905V193.235ZM82.3905 116.064V115.064H81.3905V116.064H82.3905ZM83.3905 116.064H84.3905V115.064H83.3905V116.064ZM83.3905 122.233H82.3905V123.233H83.3905V122.233ZM97.265 122.233H98.265V121.233H97.265V122.233ZM97.265 123.233V124.233H98.265V123.233H97.265ZM83.3905 123.233V122.233H82.3905V123.233H83.3905ZM83.3905 131.126H82.3905V132.126H83.3905V131.126ZM91.454 131.126H92.454V130.126H91.454V131.126ZM91.454 132.126V133.126H92.454V132.126H91.454ZM83.3905 132.126V131.126H82.3905V132.126H83.3905ZM83.3905 141.288H82.3905V142.288H83.3905V141.288ZM97.265 141.288H98.265V140.288H97.265V141.288ZM97.265 142.288V143.288H98.265V142.288H97.265ZM84.3905 193.235V142.288H82.3905V193.235H84.3905ZM82.3905 194.235H83.3905V192.235H82.3905V194.235ZM81.3905 116.064V193.235H83.3905V116.064H81.3905ZM83.3905 115.064H82.3905V117.064H83.3905V115.064ZM84.3905 122.233V116.064H82.3905V122.233H84.3905ZM97.265 121.233H83.3905V123.233H97.265V121.233ZM98.265 123.233V122.233H96.265V123.233H98.265ZM83.3905 124.233H97.265V122.233H83.3905V124.233ZM84.3905 131.126V123.233H82.3905V131.126H84.3905ZM83.3905 132.126H91.454V130.126H83.3905V132.126ZM90.454 131.126V132.126H92.454V131.126H90.454ZM91.454 131.126H83.3905V133.126H91.454V131.126ZM84.3905 141.288V132.126H82.3905V141.288H84.3905ZM97.265 140.288H83.3905V142.288H97.265V140.288ZM98.265 142.288V141.288H96.265V142.288H98.265ZM83.3905 143.288H97.265V141.288H83.3905V143.288ZM96.1824 209.114C96.1824 216.849 90.1617 222.992 82.8903 222.992V224.992C91.3352 224.992 98.1824 217.884 98.1824 209.114H96.1824ZM82.8903 195.235C90.1617 195.235 96.1824 201.378 96.1824 209.114H98.1824C98.1824 200.343 91.3352 193.235 82.8903 193.235V195.235ZM69.5981 209.114C69.5981 201.378 75.6188 195.235 82.8903 195.235V193.235C74.4454 193.235 67.5981 200.343 67.5981 209.114H69.5981ZM82.8903 222.992C75.6188 222.992 69.5981 216.849 69.5981 209.114H67.5981C67.5981 217.884 74.4454 224.992 82.8903 224.992V222.992ZM97.1824 209.114C97.1824 217.367 90.7484 223.992 82.8903 223.992V225.992C91.9233 225.992 99.1824 218.4 99.1824 209.114H97.1824ZM82.8903 194.235C90.7484 194.235 97.1824 200.86 97.1824 209.114H99.1824C99.1824 199.828 91.9233 192.235 82.8903 192.235V194.235ZM68.5981 209.114C68.5981 200.86 75.0321 194.235 82.8903 194.235V192.235C73.8572 192.235 66.5981 199.828 66.5981 209.114H68.5981ZM82.8903 223.992C75.0321 223.992 68.5981 217.367 68.5981 209.114H66.5981C66.5981 218.4 73.8572 225.992 82.8903 225.992V223.992Z" fill="#403AF4"/>
</svg>
